<svg width="100" height="100" viewBox="0 0 100 100" fill="none" xmlns="http://www.w3.org/2000/svg">
<rect width="100" height="100" fill="#040405"/>
<path fill-rule="evenodd" clip-rule="evenodd" d="M73.134 21C76.3738 21 79 23.6263 79 26.866V73.134C79 76.3738 76.3738 79 73.134 79H26.866C23.6263 79 21 76.3738 21 73.134V26.866C21 23.6263 23.6263 21 26.866 21H73.134ZM47.2566 27.0188H29.026C27.9461 27.0188 27.0706 27.8942 27.0706 28.9741V36.8707C27.0706 37.9199 29.176 38.6539 30.1118 38.1796C31.0132 37.7227 32.0327 37.4653 33.1123 37.4653C36.7827 37.4653 39.7581 40.4407 39.7581 44.1112C39.7581 47.7816 36.7827 50.757 33.1123 50.757C32.0327 50.757 31.0132 50.4995 30.1118 50.0427C29.176 49.5684 27.0706 50.3024 27.0706 51.3514V70.9802C27.0706 72.0601 27.946 72.9355 29.026 72.9355H71.032C72.1119 72.9355 72.9873 72.0601 72.9873 70.9802V51.3514C72.9873 50.3024 70.882 49.5684 69.9462 50.0427C69.0448 50.4995 68.0252 50.757 66.9457 50.757C63.2753 50.757 60.2999 47.7816 60.2999 44.1112C60.2999 40.4407 63.2753 37.4653 66.9457 37.4653C68.0252 37.4653 69.0448 37.7227 69.9462 38.1796C70.882 38.6539 72.9873 37.9199 72.9873 36.8707V28.9741C72.9873 27.8942 72.1119 27.0188 71.032 27.0188H52.8015L47.2566 27.0223V27.0188ZM53.9084 58.228C55.5822 58.228 56.9392 59.5848 56.9392 61.2588C56.9392 62.9326 55.5822 64.2896 53.9084 64.2896H46.0871C44.4133 64.2896 43.0563 62.9326 43.0563 61.2588C43.0563 59.5848 44.4133 58.228 46.0871 58.228H53.9084Z" fill="white"/>
</svg>
