<svg width="16" height="16" viewBox="0 0 16 16" fill="none" xmlns="http://www.w3.org/2000/svg">
<path fill-rule="evenodd" clip-rule="evenodd" d="M14.5 8C14.5 11.5899 11.5899 14.5 8 14.5C4.41015 14.5 1.5 11.5899 1.5 8C1.5 4.41015 4.41015 1.5 8 1.5C11.5899 1.5 14.5 4.41015 14.5 8ZM15.5 8C15.5 12.1421 12.1421 15.5 8 15.5C3.85786 15.5 0.5 12.1421 0.5 8C0.5 3.85786 3.85786 0.5 8 0.5C12.1421 0.5 15.5 3.85786 15.5 8ZM6.07373 4.75391H7.28662L9.75635 10.9985H8.61816L7.91943 9.36377H5.37061L4.67188 10.9985H3.59961L6.07373 4.75391ZM7.53271 8.34863L6.64502 6.03271L5.75293 8.34863H7.53271ZM10.8008 4.75391H11.9082V10.9985H10.8008V4.75391Z" fill="white" fill-opacity="0.6"/>
</svg>
