<svg width="10" height="10" viewBox="0 0 10 10" fill="none" xmlns="http://www.w3.org/2000/svg">
    <path fill-rule="evenodd" clip-rule="evenodd"
        d="M3.06469 9.86536C2.88517 10.0449 2.59411 10.0449 2.4146 9.86536C2.23508 9.68584 2.23508 9.39478 2.4146 9.21527L6.62695 5.00291L2.4146 0.790552C2.23508 0.611033 2.23508 0.319976 2.4146 0.140456C2.59411 -0.0390625 2.88517 -0.0390625 3.06469 0.140456L7.50988 4.58565C7.54775 4.60625 7.58333 4.63257 7.61536 4.6646C7.70849 4.75773 7.75331 4.88088 7.74981 5.00291C7.75331 5.12493 7.70849 5.24809 7.61536 5.34122C7.58333 5.37325 7.54775 5.39957 7.50988 5.42017L3.06469 9.86536Z"
        fill="white" fill-opacity="0.4" />
</svg>