<svg width="12" height="12" viewBox="0 0 12 12" fill="none" xmlns="http://www.w3.org/2000/svg">
    <path fill-rule="evenodd" clip-rule="evenodd"
        d="M2.00001 6.0033C1.99913 5.81325 2.0712 5.62293 2.2162 5.47792C2.23652 5.45761 2.25772 5.43873 2.27968 5.42128L6.73987 0.961091C7.02814 0.672819 7.49553 0.672819 7.7838 0.961091C8.07207 1.24936 8.07207 1.71674 7.7838 2.00501L3.78551 6.0033L7.7838 10.0016C8.07207 10.2899 8.07207 10.7572 7.7838 11.0455C7.49552 11.3338 7.02814 11.3338 6.73987 11.0455L2.27968 6.58532C2.25772 6.56787 2.23652 6.54899 2.2162 6.52868C2.0712 6.38368 1.99913 6.19335 2.00001 6.0033Z"
        fill="white" />
</svg>