<svg width="12" height="12" viewBox="0 0 12 12" fill="none" xmlns="http://www.w3.org/2000/svg">
<path fill-rule="evenodd" clip-rule="evenodd" d="M6.0033 9.99999C5.81325 10.0009 5.62293 9.9288 5.47792 9.7838C5.45761 9.76348 5.43873 9.74228 5.42128 9.72032L0.96109 5.26013C0.672818 4.97186 0.672818 4.50448 0.96109 4.2162C1.24936 3.92793 1.71674 3.92793 2.00501 4.2162L6.0033 8.21449L10.0016 4.2162C10.2899 3.92793 10.7572 3.92793 11.0455 4.2162C11.3338 4.50448 11.3338 4.97186 11.0455 5.26013L6.58532 9.72032C6.56787 9.74228 6.54899 9.76348 6.52868 9.7838C6.38368 9.9288 6.19335 10.0009 6.0033 9.99999Z" fill="white" fill-opacity="0.4"/>
</svg>
