<svg width="32" height="32" viewBox="0 0 32 32" fill="none" xmlns="http://www.w3.org/2000/svg">
<circle cx="16" cy="16" r="16" fill="#040405"/>
<circle cx="16" cy="16" r="15.5" stroke="white" stroke-opacity="0.12"/>
<path fill-rule="evenodd" clip-rule="evenodd" d="M8 15.5C8 11.3568 11.3591 8 15.5 8C19.6066 8 22.941 11.2981 22.9992 15.389C22.6777 15.1794 22.3328 15.0025 21.9694 14.8631C21.6503 11.5723 18.8766 9 15.5 9C11.9112 9 9 11.9093 9 15.5C9 16.5991 9.27369 17.633 9.75529 18.5414C9.99326 18.9715 10.1282 19.4663 10.1282 19.9898C10.1282 20.7377 9.85317 21.4202 9.40237 21.9462C9.39636 21.961 9.39059 21.9762 9.38562 21.9907L9.38522 21.9918C9.38718 21.994 9.3898 21.9961 9.3932 21.9979H14.8741C15.0116 22.3503 15.1844 22.6851 15.3881 22.9979H9.34302H9.31115L9.27954 22.9939C8.77668 22.9295 8.37957 22.5067 8.37957 21.9757C8.37957 21.8474 8.41984 21.7239 8.4401 21.6651C8.46637 21.5888 8.49801 21.5148 8.52439 21.4592L8.55602 21.3926L8.60551 21.338C8.93117 20.9786 9.12822 20.5075 9.12822 19.9898C9.12822 19.6385 9.03763 19.3087 8.87868 19.0226L8.87408 19.0144L8.87416 19.0143C8.3169 17.965 8 16.7691 8 15.5ZM23.5 20C23.5 21.933 21.933 23.5 20 23.5C18.067 23.5 16.5 21.933 16.5 20C16.5 18.067 18.067 16.5 20 16.5C21.933 16.5 23.5 18.067 23.5 20ZM24.5 20C24.5 22.4853 22.4853 24.5 20 24.5C17.5147 24.5 15.5 22.4853 15.5 20C15.5 17.5147 17.5147 15.5 20 15.5C22.4853 15.5 24.5 17.5147 24.5 20ZM11.5 14C11.5 13.7239 11.7239 13.5 12 13.5H17C17.2761 13.5 17.5 13.7239 17.5 14C17.5 14.2761 17.2761 14.5 17 14.5H12C11.7239 14.5 11.5 14.2761 11.5 14ZM12 16.5C11.7239 16.5 11.5 16.7239 11.5 17C11.5 17.2761 11.7239 17.5 12 17.5H14C14.2761 17.5 14.5 17.2761 14.5 17C14.5 16.7239 14.2761 16.5 14 16.5H12ZM17.5 20C17.5 19.7239 17.7239 19.5 18 19.5H19.5V18C19.5 17.7239 19.7239 17.5 20 17.5C20.2761 17.5 20.5 17.7239 20.5 18V19.5H22C22.2761 19.5 22.5 19.7239 22.5 20C22.5 20.2761 22.2761 20.5 22 20.5H20.5V22C20.5 22.2761 20.2761 22.5 20 22.5C19.7239 22.5 19.5 22.2761 19.5 22V20.5H18C17.7239 20.5 17.5 20.2761 17.5 20Z" fill="white" fill-opacity="0.6"/>
</svg>
