<svg width="10" height="10" viewBox="0 0 10 10" fill="none" xmlns="http://www.w3.org/2000/svg">
<path fill-rule="evenodd" clip-rule="evenodd" d="M9 5C9 7.20914 7.20914 9 5 9C2.79086 9 1 7.20914 1 5C1 2.79086 2.79086 1 5 1C7.20914 1 9 2.79086 9 5ZM10 5C10 7.76142 7.76142 10 5 10C2.23858 10 0 7.76142 0 5C0 2.23858 2.23858 0 5 0C7.76142 0 10 2.23858 10 5ZM3.05355 4.60348C2.85829 4.40822 2.54171 4.40822 2.34645 4.60348C2.15118 4.79874 2.15118 5.11532 2.34645 5.31058L4.11421 7.07835C4.30948 7.27361 4.62606 7.27361 4.82132 7.07835L7.64975 4.24992C7.84501 4.05466 7.84501 3.73808 7.64975 3.54282C7.45449 3.34756 7.1379 3.34756 6.94264 3.54282L4.46777 6.01769L3.05355 4.60348Z" fill="#00C087"/>
</svg>
