<svg width="32" height="32" viewBox="0 0 32 32" fill="none" xmlns="http://www.w3.org/2000/svg">
    <path fill-rule="evenodd" clip-rule="evenodd"
        d="M17.633 11.8229C17.3568 12.3012 16.7452 12.4651 16.2669 12.189L13.9781 10.8675C13.4999 10.5914 12.8883 10.7553 12.6121 11.2336L11.7907 12.6563L21.317 18.1563L22.1384 16.7336C22.4145 16.2553 22.2507 15.6437 21.7724 15.3675L19.4836 14.0461C19.0053 13.77 18.8414 13.1584 19.1176 12.6801L20.4926 10.2985L19.7503 9.86993L19.008 9.44136L17.633 11.8229ZM8.98712 17.5122L11.2907 13.5223L20.817 19.0223L18.5134 23.0122C18.2373 23.4905 17.6257 23.6544 17.1474 23.3783L11.6733 20.2178L13.1019 17.7435L13.3519 17.3105L12.4859 16.8105L12.2359 17.2435L10.8073 19.7178L9.35314 18.8783C8.87485 18.6021 8.71098 17.9905 8.98712 17.5122ZM20.8496 13.6801L22.2724 14.5015C23.229 15.0538 23.5567 16.277 23.0044 17.2336L19.3794 23.5122C18.8271 24.4688 17.604 24.7966 16.6474 24.2443L8.85314 19.7443C7.89656 19.192 7.56881 17.9688 8.12109 17.0122L11.7461 10.7336C12.2984 9.77697 13.5216 9.44922 14.4781 10.0015L15.9009 10.8229L16.7669 11.3229L17.2669 10.4569L18.1419 8.94136C18.4181 8.46307 19.0297 8.29919 19.508 8.57533L20.2503 9.00391L20.9926 9.43248C21.4709 9.70862 21.6347 10.3202 21.3586 10.7985L20.4836 12.314L19.9836 13.1801L20.8496 13.6801Z"
        fill="white" />
    <circle cx="16" cy="16" r="16" fill="white" fill-opacity="0.08" />
    <circle cx="16" cy="16" r="15.5" stroke="white" stroke-opacity="0.2" />
</svg>