<svg width="12" height="12" viewBox="0 0 12 12" fill="none" xmlns="http://www.w3.org/2000/svg">
    <path opacity="0.4" fill-rule="evenodd" clip-rule="evenodd"
        d="M11.7614 10.6091C12.0796 10.9273 12.0796 11.4432 11.7614 11.7614C11.4432 12.0796 10.9273 12.0796 10.6091 11.7614L6.00017 7.15245L1.39125 11.7614C1.07306 12.0796 0.557169 12.0796 0.238977 11.7614C-0.0792139 11.4432 -0.0792139 10.9273 0.238977 10.6091L4.8479 6.00017L0.238643 1.39092C-0.0795478 1.07273 -0.0795478 0.556835 0.238643 0.238644C0.556835 -0.0795472 1.07272 -0.0795484 1.39091 0.238643L6.00017 4.8479L10.6094 0.238643C10.9276 -0.0795484 11.4435 -0.0795472 11.7617 0.238644C12.0799 0.556835 12.0799 1.07273 11.7617 1.39092L7.15245 6.00017L11.7614 10.6091Z"
        fill="white" />
</svg>