<svg width="12" height="12" viewBox="0 0 12 12" fill="none" xmlns="http://www.w3.org/2000/svg">
<path fill-rule="evenodd" clip-rule="evenodd" d="M6.00065 1.33594C3.42402 1.33594 1.33398 3.42467 1.33398 6.0026C1.33398 6.79046 1.52949 7.53054 1.87378 8.18155C2.11233 8.61462 2.24731 9.11228 2.24731 9.63722C2.24731 9.99939 2.18323 10.3463 2.06651 10.6676H6.00065C8.57878 10.6676 10.6673 8.57904 10.6673 6.00091C10.6673 3.42467 8.57898 1.33594 6.00065 1.33594ZM1.46427 11.6676H6.00065C9.13107 11.6676 11.6673 9.13132 11.6673 6.00091C11.6673 2.87219 9.13107 0.335938 6.00065 0.335938C2.87193 0.335938 0.333984 2.87219 0.333984 6.0026C0.333984 6.96176 0.573349 7.8649 0.99436 8.65769C1.15563 8.94798 1.24731 9.28241 1.24731 9.63722C1.24731 10.1618 1.04699 10.6388 0.719345 11.0004C0.68709 11.0683 0.641254 11.1838 0.641254 11.2449C0.641254 11.4639 0.804226 11.6404 1.01643 11.6676H1.45565H1.46427ZM3.75 5.8125C3.75 5.50184 4.00184 5.25 4.3125 5.25H7.6875C7.99816 5.25 8.25 5.50184 8.25 5.8125C8.25 6.12316 7.99816 6.375 7.6875 6.375H4.3125C4.00184 6.375 3.75 6.12316 3.75 5.8125ZM4.3125 7.5C4.00184 7.5 3.75 7.75184 3.75 8.0625C3.75 8.37316 4.00184 8.625 4.3125 8.625H5.4375C5.74816 8.625 6 8.37316 6 8.0625C6 7.75184 5.74816 7.5 5.4375 7.5H4.3125Z" fill="white" />
</svg>
