<svg width="14" height="14" viewBox="0 0 14 14" fill="none" xmlns="http://www.w3.org/2000/svg">
<path fill-rule="evenodd" clip-rule="evenodd" d="M4.83394 0C4.5578 0 4.33394 0.223858 4.33394 0.5C4.33394 0.776142 4.5578 1 4.83394 1H9.16714C9.44328 1 9.66714 0.776142 9.66714 0.5C9.66714 0.223858 9.44328 0 9.16714 0H4.83394ZM0.5 2.16387C0.223858 2.16387 0 2.38772 0 2.66387C0 2.94001 0.223858 3.16387 0.5 3.16387H2.16797V11.9969C2.16797 13.1014 3.0634 13.9969 4.16797 13.9969H9.83437C10.9389 13.9969 11.8344 13.1014 11.8344 11.9969V3.16387H13.4996C13.7757 3.16387 13.9996 2.94001 13.9996 2.66387C13.9996 2.38772 13.7757 2.16387 13.4996 2.16387H0.5ZM10.8344 3.16387H3.16797V11.9969C3.16797 12.5492 3.61568 12.9969 4.16797 12.9969H9.83437C10.3867 12.9969 10.8344 12.5492 10.8344 11.9969V3.16387ZM6.14648 5.91387C6.14648 5.63772 5.92263 5.41387 5.64648 5.41387C5.37034 5.41387 5.14648 5.63772 5.14648 5.91387V10.2471C5.14648 10.5232 5.37034 10.7471 5.64648 10.7471C5.92263 10.7471 6.14648 10.5232 6.14648 10.2471V5.91387ZM8.85547 5.91387C8.85547 5.63772 8.63161 5.41387 8.35547 5.41387C8.07933 5.41387 7.85547 5.63772 7.85547 5.91387V10.2471C7.85547 10.5232 8.07933 10.7471 8.35547 10.7471C8.63161 10.7471 8.85547 10.5232 8.85547 10.2471V5.91387Z" fill="white" fill-opacity="0.6"/>
</svg>
