<svg width="22" height="22" viewBox="0 0 22 22" fill="none" xmlns="http://www.w3.org/2000/svg">
<path d="M10.5 3H5C3.34315 3 2 4.34315 2 6V17C2 18.6569 3.34315 20 5 20H16C17.6569 20 19 18.6569 19 17V12.5" stroke="#121212" stroke-width="1.5" stroke-linecap="round"/>
<path fill-rule="evenodd" clip-rule="evenodd" d="M16.308 3.9054L17.7213 2.49219L19.8426 4.61351L18.4294 6.02672L16.308 3.9054ZM15.2474 4.96606L9.94308 10.2704L9.58952 12.7452L12.0644 12.3917L17.3687 7.08738L15.2474 4.96606ZM16.6606 1.43153C17.2464 0.845741 18.1961 0.845741 18.7819 1.43153L20.9032 3.55285C21.489 4.13863 21.489 5.08838 20.9032 5.67417L13.0072 13.5702C12.8542 13.7232 12.6557 13.8224 12.4415 13.853L9.14169 14.3244C8.48172 14.4187 7.91604 13.853 8.01032 13.1931L8.48172 9.89324C8.51232 9.67904 8.61157 9.48055 8.76456 9.32755L16.6606 1.43153Z" fill="#17B09E"/>
</svg>
