<svg width="12" height="12" viewBox="0 0 12 12" fill="none" xmlns="http://www.w3.org/2000/svg">
    <path fill-rule="evenodd" clip-rule="evenodd"
        d="M5.14645 5.8033C4.95118 5.99856 4.95118 6.31515 5.14645 6.51041C5.34171 6.70567 5.65829 6.70567 5.85355 6.51041L11.5104 0.853553C11.7057 0.658291 11.7057 0.341709 11.5104 0.146447C11.3151 -0.0488156 10.9986 -0.0488154 10.8033 0.146447L5.14645 5.8033ZM1 2.5006C1 1.67218 1.67157 1.0006 2.5 1.0006H6V0.000604021H2.5C1.11929 0.000604021 0 1.11989 0 2.5006V9.5006C0 10.8813 1.11929 12.0006 2.5 12.0006H9.5C10.8807 12.0006 12 10.8813 12 9.5006V6.0006H11V9.5006C11 10.329 10.3284 11.0006 9.5 11.0006H2.5C1.67157 11.0006 1 10.329 1 9.5006V2.5006Z"
        fill="white" />
</svg>