<svg width="16" height="16" viewBox="0 0 16 16" fill="none" xmlns="http://www.w3.org/2000/svg">
<mask id="mask0_34779_38923" style="mask-type:alpha" maskUnits="userSpaceOnUse" x="0" y="0" width="16" height="16">
<rect width="16" height="16" fill="#D9D9D9"/>
</mask>
<g mask="url(#mask0_34779_38923)">
<path fill-rule="evenodd" clip-rule="evenodd" d="M10.4897 0.981931L10.1362 0.628378L9.42908 1.33548L9.78264 1.68904L14.0253 5.93168L14.3788 6.28523L15.0859 5.57812L14.7324 5.22457L10.4897 0.981931ZM8.54922 3.62956L12.0848 7.1651L5.33891 13.9109L2.05591 13.6584L1.80338 10.3754L8.54922 3.62956ZM8.54922 2.21535L9.25633 2.92246L12.7919 6.45799L13.499 7.1651L12.7919 7.8722L6.04602 14.618C5.83959 14.8245 5.55328 14.9304 5.26221 14.908L1.55191 14.6226C1.30602 14.6037 1.11064 14.4083 1.09173 14.1624L0.80632 10.4521C0.78393 10.161 0.889846 9.87472 1.09627 9.6683L7.84211 2.92246L8.54922 2.21535Z" fill="white"/>
</g>
</svg>
