<svg width="100" height="100" viewBox="0 0 100 100" fill="none" xmlns="http://www.w3.org/2000/svg">
<mask id="mask0_36072_38397" style="mask-type:alpha" maskUnits="userSpaceOnUse" x="0" y="0" width="100" height="100">
<rect width="100" height="100" fill="#D9D9D9"/>
</mask>
<g mask="url(#mask0_36072_38397)">
<path d="M37.2988 26.9023C33.7889 29.0961 32.1644 32.8055 31.7988 33.9023L32.7871 34.8906C33.1255 35.229 33.4004 35.6254 33.5988 36.0609L33.7988 36.5L35.8342 31.7248C36.0347 31.2542 36.3237 30.8265 36.6854 30.4648L40.0378 27.1124C40.3604 26.7898 40.7358 26.5248 41.1478 26.3288L47.2988 23.4023C46.0192 23.4023 40.8088 24.7086 37.2988 26.9023Z" fill="#44DAC8"/>
<path d="M46.2988 30.9026C48.7988 29.9061 54.5775 29.4025 58.0752 35.4008C60.9917 40.4023 57.2988 46.9037 53.1393 49.1122" stroke="#44DAC8" stroke-linecap="round"/>
<path d="M34.2988 36.4017C34.5566 34.4042 36.2476 28.0502 43.2674 24.979C52.0423 21.14 61.7988 25.9025 64.6559 33.7539C67.513 41.6052 64.2988 48.4023 59.7988 52.1017" stroke="#44DAC8" stroke-linecap="round"/>
<path fill-rule="evenodd" clip-rule="evenodd" d="M62.0893 21.0842C61.3095 20.1257 60.082 19.6494 58.8597 19.8311L26.4207 24.6531C26.4202 24.6532 26.4196 24.6533 26.4191 24.6533L26.4058 24.7196C26.1978 25.7596 26.4726 26.8379 27.1531 27.6515L48.1949 52.8102C48.5336 53.2151 49.0603 53.4122 49.5816 53.3291L81.3994 48.2567C82.1689 48.134 82.8073 47.5964 83.0595 46.8601L62.0893 21.0842ZM83.6836 47.8515C83.2123 48.5879 82.4436 49.1029 81.5568 49.2443L49.7391 54.3167C48.8701 54.4552 47.9923 54.1267 47.4278 53.4517L26.386 28.293C25.6128 27.3686 25.247 26.1783 25.357 24.9911C24.5935 25.377 23.985 26.0361 23.6687 26.8586L12.8642 54.9501C12.4018 56.1524 12.6371 57.5114 13.4768 58.4882L34.9767 83.4982C35.7618 84.4115 36.9614 84.857 38.1523 84.6776L70.1912 79.8498C71.4231 79.6642 72.4634 78.8377 72.9229 77.6798L83.7096 50.4974C84.0522 49.634 84.0331 48.6843 83.6836 47.8515ZM58.7127 18.842C60.2842 18.6084 61.8624 19.2207 62.865 20.4532L83.9471 46.3665C84.9754 47.6305 85.2401 49.3516 84.6391 50.8662L73.8524 78.0487C73.2616 79.5374 71.924 80.6 70.3402 80.8386L38.3013 85.6664C36.7701 85.8971 35.2278 85.3244 34.2184 84.1501L12.7185 59.1401C11.6389 57.8842 11.3364 56.1369 11.9309 54.5912L22.7353 26.4997C23.3175 24.9858 24.6694 23.9024 26.2737 23.664L58.7127 18.842ZM47.7183 57.0346C47.9762 57.1334 48.1052 57.4225 48.0064 57.6804L39.0064 81.1804C38.9077 81.4383 38.6186 81.5673 38.3607 81.4685C38.1028 81.3697 37.9738 81.0806 38.0726 80.8227L47.0726 57.3227C47.1713 57.0649 47.4605 56.9359 47.7183 57.0346Z" fill="#999999"/>
<path d="M0.541016 41L1.54102 36L3.04102 36.5L5.54102 39L8.54102 41L8.04102 43.5L8.54102 47L10.041 49.5L6.04102 47.5L2.04102 44L0.541016 41Z" fill="#040405"/>
<path d="M16.541 43.5L8.54102 44V47L10.041 49.5L13.041 51L17.541 51.5L22.541 52L28.541 54V53L23.041 47L19.041 44L16.541 43.5Z" fill="#040405"/>
<path d="M25.041 56.5L24.541 53L25.041 52.5L27.541 53.5L30.541 55.5L32.041 58.5V62L30.541 66L28.041 70L26.041 73.5L25.541 76L24.541 75.5L22.041 72L19.541 68.5L19.041 66.5L21.041 64.5L23.041 60.5L25.041 56.5Z" fill="#040405"/>
<path fill-rule="evenodd" clip-rule="evenodd" d="M1.32434 34.6953L1.84946 35.1079L8.39573 40.2514C8.81835 40.5835 9.02332 41.1085 8.96585 41.6278C8.90803 42.1502 8.85563 42.7946 8.83236 43.4622C10.3342 43.2863 13.3021 43.0011 15.541 43.0011L15.6037 43.0011H15.6037C17.0497 43.001 18.1313 43.0009 19.2166 43.4079C20.3214 43.8222 21.3842 44.6371 22.8945 46.1475C25.2874 48.5404 28.6795 52.7171 30.3719 54.9113C30.4281 54.9669 30.4835 55.0232 30.538 55.0805C31.9855 56.5983 32.8259 58.6768 32.5385 61.5508C32.2751 64.1852 30.5792 67.1105 29.0293 69.6284C28.8539 69.9133 28.6804 70.193 28.5102 70.4672C27.9151 71.4262 27.3624 72.3168 26.9255 73.1197C26.6458 73.6338 26.4215 74.0978 26.2679 74.5071C26.1127 74.921 26.041 75.2499 26.041 75.5011C26.041 76.0334 26.1809 76.3616 26.3558 76.5729C26.5346 76.7889 26.7915 76.9326 27.1088 77.0184C27.763 77.1952 28.5426 77.0908 28.9426 77.0108C29.2134 76.9566 29.4768 77.1322 29.5309 77.403C29.5851 77.6738 29.4095 77.9372 29.1387 77.9914C28.7054 78.078 27.7351 78.2236 26.8478 77.9837C26.4878 77.8864 26.1225 77.7206 25.8136 77.4465C25.7495 77.4138 25.6915 77.3667 25.6447 77.3059C25.1577 76.6729 24.4718 75.8248 23.7203 74.8955L23.7196 74.8947C23.1884 74.2379 22.6245 73.5405 22.0748 72.85C21.4152 72.0213 20.7793 71.206 20.257 70.4957C19.741 69.7941 19.3151 69.1673 19.0938 68.7247C18.8117 68.1604 18.6878 67.6271 18.7467 67.066C18.8043 66.5178 19.0318 65.9926 19.3595 65.4351C19.6863 64.8795 20.1391 64.2495 20.6816 63.4976L20.7377 63.4198L20.7378 63.4197C21.2731 62.6779 21.9051 61.8021 22.624 60.7237C24.8871 57.3292 24.5344 53.989 24.0942 52.7381C22.181 52.2213 20.2662 52.1182 18.4011 52.0634C18.1793 52.0568 17.9576 52.051 17.7364 52.0452H17.7363H17.7363C15.8703 51.9963 14.0357 51.9481 12.4036 51.4818C10.5687 50.9576 8.38682 49.6661 6.43908 48.2838C4.48188 46.8948 2.70981 45.377 1.68738 44.3546C0.432694 43.1 0.143162 41.2129 0.212744 39.5271C0.283036 37.824 0.724227 36.1956 1.07631 35.3154L1.32434 34.6953ZM25.2281 53.0935C25.6125 54.8689 25.5952 58.0698 23.4561 61.2784C22.7268 62.3724 22.0854 63.2611 21.5504 64.0025L21.5503 64.0026L21.4926 64.0827C20.9415 64.8464 20.5196 65.4352 20.2216 65.942C19.9246 66.4471 19.7772 66.828 19.7413 67.1705C19.7066 67.5001 19.7704 67.8418 19.9882 68.2775C20.1669 68.6349 20.5452 69.1997 21.0626 69.9033C21.5736 70.5982 22.2002 71.4017 22.8572 72.2272C23.3936 72.9011 23.9525 73.5922 24.4828 74.248L24.4828 74.2481C24.6904 74.5048 24.8936 74.7561 25.0894 74.9988C25.1391 74.7252 25.2242 74.4422 25.3316 74.1559C25.5081 73.6854 25.7565 73.1759 26.0471 72.6418C26.4991 71.8112 27.0725 70.8872 27.6705 69.9237L27.6711 69.9227L27.6722 69.9209C27.8395 69.6514 28.0087 69.3788 28.1777 69.1043C29.7528 66.5454 31.3069 63.817 31.5435 61.4513C31.8033 58.8526 31.0504 57.0668 29.8143 55.7706C29.7969 55.7523 29.7793 55.734 29.7616 55.7159C29.7181 55.6866 29.6785 55.6498 29.6447 55.6059L29.6222 55.5767C28.4582 54.446 26.8882 53.6757 25.2281 53.0935ZM9.02562 46.3798C8.89327 45.8504 8.83486 45.175 8.82231 44.4704C10.2609 44.2983 13.2941 44.0011 15.541 44.0011C17.0634 44.0011 17.9663 44.0071 18.8654 44.3442C19.7605 44.6799 20.6978 45.365 22.1874 46.8546C23.7902 48.4574 25.8669 50.8958 27.5596 52.9771C26.7924 52.6006 25.9917 52.291 25.1987 52.0267C22.8733 51.2516 20.5589 51.1264 18.4305 51.0638C18.2087 51.0573 17.9894 51.0514 17.7727 51.0456L17.7723 51.0456L17.7717 51.0456C15.8805 50.9949 14.1803 50.9494 12.6783 50.5203C12.2726 50.4044 11.8431 50.245 11.3974 50.0504L11.3945 50.0475C11.076 49.729 10.5703 49.1752 10.0983 48.5113C9.62232 47.8419 9.20384 47.0927 9.02562 46.3798ZM9.11605 48.8492C8.66911 48.1853 8.2528 47.4116 8.05548 46.6223C7.6871 45.1488 7.82439 42.8507 7.97192 41.5177C7.99302 41.3271 7.91687 41.1469 7.7779 41.0377L1.78102 36.3259C1.52088 37.1636 1.26227 38.3477 1.21189 39.5683C1.14605 41.1635 1.44004 42.6931 2.39447 43.6475C3.37212 44.6251 5.10006 46.1073 7.01783 47.4683C7.70751 47.9578 8.41522 48.4268 9.11605 48.8492Z" fill="#999999"/>
<path d="M96.3149 76.5544L99.0094 72.2255L97.5738 71.5629L94.04 71.6733L90.4841 71.077L89.1369 73.2415L86.3761 75.4501L83.5711 76.2452L87.8559 77.5262L93.1676 77.7139L96.3149 76.5544Z" fill="#040405"/>
<path d="M82.9407 67.421L88.4291 73.2629L86.3751 75.4494L83.5702 76.2445L80.3566 75.2838L76.7344 72.5672L72.7479 69.5082L67.0054 66.8579L67.6901 66.129L75.8068 65.5216L80.7762 66.0738L82.9407 67.421Z" fill="#040405"/>
<path d="M67.8452 71.0769L70.606 68.8682L70.5839 68.1615L68.0771 67.1786L64.5212 66.5823L61.3739 67.7419L58.9776 70.2928L57.3322 74.2352L56.4156 78.8623L55.4769 82.7826L54.1297 84.9471L55.2009 85.2674L59.4193 84.4281L63.6378 83.5888L65.3716 82.4734L65.2832 79.6464L66.5642 75.3616L67.8452 71.0769Z" fill="#040405"/>
<path fill-rule="evenodd" clip-rule="evenodd" d="M100.06 71.4237L99.3945 71.3649L91.1017 70.6317C90.5663 70.5844 90.0574 70.8267 89.7438 71.2445C89.4283 71.6648 89.0253 72.1703 88.5852 72.6728C87.6108 71.5162 85.6434 69.2768 84.0118 67.7441L83.9661 67.7012C82.9123 66.711 82.124 65.9705 81.0543 65.524C79.9653 65.0695 78.6328 64.9358 76.4979 65.0026C73.1169 65.1082 67.788 65.8294 65.0511 66.2699C64.9708 66.272 64.8905 66.2752 64.8102 66.2796C62.716 66.3948 60.6803 67.3343 58.9221 69.6258C57.3104 71.7262 56.5436 75.0194 55.9492 77.9159C55.882 78.2435 55.817 78.5663 55.7533 78.8825C55.5304 79.989 55.3235 81.0165 55.0922 81.9009C54.9441 82.467 54.7899 82.9588 54.6215 83.3623C54.4513 83.7702 54.2784 84.059 54.1064 84.2421C53.7419 84.6301 53.4153 84.7735 53.1431 84.8078C52.8648 84.8428 52.5792 84.7716 52.2893 84.6169C51.6914 84.2979 51.1947 83.688 50.9579 83.3558C50.7976 83.131 50.4854 83.0786 50.2605 83.2389C50.0357 83.3992 49.9833 83.7114 50.1436 83.9363C50.4001 84.2961 51.0076 85.0665 51.8185 85.4992C52.1483 85.6752 52.5292 85.8046 52.9432 85.8158C53.0114 85.8352 53.0849 85.8403 53.1595 85.8282C53.948 85.7001 55.0289 85.5516 56.2132 85.3888L56.2135 85.3888C57.0504 85.2737 57.9389 85.1516 58.8123 85.0246C59.8604 84.8723 60.8821 84.7135 61.7491 84.5534C62.6055 84.3953 63.3451 84.23 63.8095 84.0589C64.4015 83.8408 64.8569 83.5369 65.1981 83.0877C65.5314 82.6487 65.7253 82.1101 65.868 81.4794C66.0104 80.8507 66.1117 80.0815 66.231 79.162L66.2434 79.0669C66.3611 78.1597 66.5001 77.0886 66.7145 75.8104C67.3891 71.7876 69.9322 69.5947 71.1098 68.9838C72.8584 69.9172 74.3248 71.1532 75.7219 72.3904C75.8881 72.5375 76.0536 72.6851 76.2188 72.8323L76.2189 72.8323L76.2189 72.8324C77.6124 74.0743 78.9826 75.2953 80.4914 76.0729C82.1877 76.9471 84.6622 77.4997 87.0282 77.8258C89.4057 78.1535 91.7365 78.2605 93.1817 78.2154C94.9552 78.16 96.4582 76.9828 97.5618 75.7064C98.6766 74.4171 99.47 72.9281 99.816 72.0455L100.06 71.4237ZM70.04 68.4667C68.5444 69.4977 66.366 71.8424 65.7283 75.645C65.5108 76.9417 65.3698 78.0286 65.2521 78.9353L65.2521 78.9354L65.2394 79.0333C65.1181 79.9672 65.0225 80.6852 64.8927 81.2586C64.7634 81.8301 64.6099 82.2086 64.4017 82.4829C64.2012 82.7468 63.9208 82.9522 63.4637 83.1206C63.0888 83.2587 62.4264 83.4114 61.5675 83.57C60.7193 83.7266 59.7125 83.8833 58.6684 84.035C57.8164 84.1589 56.9362 84.2799 56.101 84.3948L56.1 84.3949C55.7731 84.4399 55.4531 84.4839 55.1444 84.5267C55.2953 84.2935 55.4268 84.0293 55.5444 83.7474C55.7379 83.2836 55.9058 82.7422 56.0596 82.1539C56.2989 81.2392 56.5135 80.1731 56.7374 79.0614L56.7376 79.0602L56.738 79.0582C56.8007 78.7472 56.864 78.4327 56.9288 78.1169C57.5328 75.1734 58.2681 72.1207 59.7154 70.2346C61.3053 68.1626 63.0768 67.3765 64.8652 67.2781C64.8899 67.2767 64.9146 67.2755 64.9393 67.2744C64.9918 67.2832 65.0466 67.2837 65.1021 67.2747L65.1417 67.2683C66.7628 67.242 68.4329 67.7551 70.04 68.4667ZM86.4466 74.6671C86.9056 74.3719 87.4106 73.9196 87.9022 73.4145C86.9713 72.3039 84.9645 70.0111 83.3271 68.4729C82.2175 67.4305 81.5553 66.8167 80.6692 66.4469C79.7869 66.0787 78.6347 65.9363 76.5291 66.0021C74.2637 66.0729 71.081 66.4282 68.4224 66.7862C69.2388 67.037 70.034 67.3594 70.7925 67.7095C73.0182 68.7367 74.7907 70.2301 76.3849 71.6418C76.551 71.7888 76.7148 71.9347 76.8768 72.0789L76.8771 72.0791L76.8775 72.0795C78.2906 73.3375 79.5609 74.4684 80.9495 75.184C81.3245 75.3773 81.7467 75.5552 82.2047 75.7185L82.2088 75.7184C82.6591 75.7043 83.4068 75.6469 84.2054 75.4863C85.0106 75.3242 85.8286 75.0647 86.4466 74.6671ZM84.69 76.405C85.4703 76.2272 86.3034 75.9483 86.9876 75.5081C88.265 74.6864 89.7384 72.9174 90.5435 71.8448C90.6587 71.6915 90.8376 71.6122 91.0136 71.6278L98.6105 72.2995C98.2265 73.0882 97.6043 74.1283 96.8053 75.0524C95.7611 76.2602 94.4995 77.1737 93.1505 77.2158C91.7685 77.259 89.4943 77.1562 87.1647 76.8351C86.3269 76.7197 85.49 76.577 84.69 76.405Z" fill="#999999"/>
<path fill-rule="evenodd" clip-rule="evenodd" d="M65.1068 6.45766C65.3705 6.5395 65.518 6.81965 65.4361 7.08339L63.7016 12.6728C63.6197 12.9365 63.3396 13.084 63.0758 13.0021C62.8121 12.9203 62.6646 12.6401 62.7465 12.3764L64.481 6.787C64.5629 6.52326 64.843 6.37581 65.1068 6.45766ZM55.2117 7.4385C55.4537 7.30541 55.7577 7.39366 55.8908 7.63562L58.2642 11.9504C58.3973 12.1923 58.3091 12.4963 58.0671 12.6294C57.8251 12.7625 57.5211 12.6743 57.388 12.4323L55.0146 8.11758C54.8815 7.87563 54.9698 7.57159 55.2117 7.4385ZM72.4416 13.5289C72.6893 13.4069 72.7913 13.1072 72.6693 12.8595C72.5474 12.6117 72.2477 12.5098 71.9999 12.6317L66.9846 15.1008C66.7368 15.2228 66.6349 15.5225 66.7568 15.7702C66.8788 16.018 67.1785 16.12 67.4263 15.998L72.4416 13.5289Z" fill="#999999"/>
</g>
</svg>
