<svg width="114" height="92" viewBox="0 0 114 92" fill="none" xmlns="http://www.w3.org/2000/svg">
<path fill-rule="evenodd" clip-rule="evenodd" d="M112.919 3.8187C112.919 4.27086 112.552 4.63741 112.1 4.63741C111.648 4.63741 111.281 4.27086 111.281 3.8187C111.281 3.36655 111.648 3 112.1 3C112.552 3 112.919 3.36655 112.919 3.8187ZM113.919 3.8187C113.919 4.82315 113.104 5.63741 112.1 5.63741C111.096 5.63741 110.281 4.82315 110.281 3.8187C110.281 2.81426 111.096 2 112.1 2C113.104 2 113.919 2.81426 113.919 3.8187ZM70 4H40C36.134 4 33 7.13401 33 11V41C33 44.866 36.134 48 40 48H70C73.866 48 77 44.866 77 41V11C77 10.9578 76.9996 10.9157 76.9989 10.8736C75.7976 11.1265 74.5571 11.392 73.2846 11.6694L73.0715 10.6924C74.3877 10.4054 75.6696 10.1313 76.9094 9.87058C76.3694 6.54161 73.4815 4 70 4ZM77.8892 9.66554C77.254 5.88248 73.9636 3 70 3H40C35.5817 3 32 6.58172 32 11V20.1603C27.2657 22.0453 22.7023 24.204 19.3706 26.4056C17.6696 27.5296 16.2642 28.6812 15.3225 29.8327C14.3852 30.9787 13.8524 32.1946 14.0542 33.4171C14.2198 34.421 14.9757 35.2259 16.0109 35.874C17.0556 36.5281 18.4699 37.0775 20.1247 37.5426C23.3294 38.4433 27.5435 39.0566 32 39.4576V41C32 45.4183 35.5817 49 40 49H70C74.4183 49 78 45.4183 78 41V40.5305C81.833 40.7676 85.7308 41.1837 88.906 41.7639C90.5677 42.0676 92.0191 42.414 93.1551 42.7986C94.315 43.1914 95.0639 43.5979 95.4066 43.9765C96.0904 44.7319 96.3504 45.4617 96.3239 46.1739C96.297 46.901 95.9687 47.6823 95.335 48.5204C94.059 50.2081 91.6685 51.9663 88.6793 53.7438C85.7041 55.5129 82.1967 57.2666 78.738 58.9625C78.2623 59.1958 77.7874 59.428 77.3149 59.659C74.3611 61.1034 71.5031 62.501 69.139 63.8144C68.2064 64.3325 67.3211 64.8971 66.4825 65.4979C63.0186 65.0847 59.3168 64.8611 55.4707 64.8611C36.0528 64.8611 20.3115 70.5605 20.3115 77.5911C20.3115 84.6217 36.0528 90.3212 55.4707 90.3212C74.8886 90.3212 90.6299 84.6217 90.6299 77.5911C90.6299 72.1546 81.2175 67.514 67.9711 65.6891C68.5042 65.3392 69.0553 65.0049 69.6246 64.6886C71.9638 63.389 74.7946 62.0047 77.751 60.559L77.7511 60.5589C78.2241 60.3276 78.7003 60.0947 79.1783 59.8604C82.6349 58.1654 86.1761 56.3956 89.1903 54.6033C92.1905 52.8194 94.7302 50.9784 96.1326 49.1235C96.8381 48.1905 97.286 47.2148 97.3233 46.2109C97.361 45.1921 96.9732 44.217 96.148 43.3054C95.6195 42.7216 94.6517 42.2496 93.4758 41.8514C92.2758 41.4452 90.7721 41.0884 89.0858 40.7802C85.8426 40.1875 81.8783 39.7666 78 39.5286V11C78 10.8879 77.9977 10.7763 77.9931 10.6654C78.4894 10.5619 78.9784 10.4607 79.4596 10.3619C80.8496 10.0763 82.1743 9.81011 83.4208 9.56459L83.2276 8.58344C81.9784 8.82948 80.6511 9.09618 79.2583 9.38233C78.8086 9.47472 78.3521 9.56914 77.8892 9.66554ZM65.3241 66.3734C62.2055 66.0405 58.8987 65.8611 55.4707 65.8611C45.8466 65.8611 37.1773 67.2751 30.9498 69.5299C27.8319 70.6588 25.3792 71.9794 23.7248 73.3957C22.0667 74.815 21.3115 76.2363 21.3115 77.5911C21.3115 78.9459 22.0667 80.3673 23.7248 81.7866C25.3792 83.2028 27.8319 84.5235 30.9498 85.6524C37.1773 87.9072 45.8466 89.3212 55.4707 89.3212C65.0948 89.3212 73.7641 87.9072 79.9916 85.6524C83.1095 84.5235 85.5622 83.2028 87.2166 81.7866C88.8746 80.3673 89.6299 78.9459 89.6299 77.5911C89.6299 76.2363 88.8746 74.815 87.2166 73.3957C85.5622 71.9794 83.1095 70.6588 79.9916 69.5299C76.3242 68.202 71.8099 67.1657 66.7524 66.5381C64.656 68.0855 62.868 69.867 61.3749 71.703C73.0675 72.4505 81.8171 75.48 81.8171 79.1036C81.8171 80.9787 79.4741 82.6948 75.5927 84.0178C75.599 84.033 75.6051 84.0482 75.6111 84.0634L74.6808 84.4301C74.6753 84.4163 74.6697 84.4025 74.6639 84.3887C74.6551 84.368 74.646 84.3472 74.6364 84.3264C69.888 85.7769 63.1826 86.681 55.7507 86.681C41.3547 86.681 29.6844 83.2885 29.6844 79.1036C29.6844 74.9187 41.3547 71.5262 55.7507 71.5262C57.2508 71.5262 58.7213 71.563 60.1521 71.6337C61.5879 69.7877 63.3074 67.9791 65.3241 66.3734ZM59.427 72.6018C58.2274 72.552 57 72.5262 55.7507 72.5262C48.6197 72.5262 42.2015 73.3676 37.5982 74.7058C35.2899 75.3768 33.4947 76.1567 32.2993 76.9782C31.0723 77.8215 30.6844 78.5568 30.6844 79.1036C30.6844 79.6504 31.0723 80.3857 32.2993 81.2289C33.2689 81.8954 34.6331 82.5343 36.3457 83.11C36.8427 82.5127 37.5566 81.9751 38.4185 81.4964C39.5914 80.845 41.09 80.2741 42.8277 79.8018C46.3045 78.8568 50.7957 78.291 55.6889 78.291C55.8344 78.291 55.9795 78.2915 56.1243 78.2925C56.9237 76.5147 58.0194 74.5535 59.427 72.6018ZM55.698 79.291C55.1874 80.5557 54.839 81.6985 54.6464 82.6402L55.6261 82.8406C55.8258 81.8644 56.2062 80.6505 56.7752 79.3005C61.3087 79.3799 65.4159 79.953 68.5751 80.8465C70.281 81.3289 71.6937 81.9001 72.7439 82.5261C73.2679 82.8384 73.6871 83.1556 74.0066 83.4712L73.9033 83.5014C69.3 84.8396 62.8818 85.681 55.7507 85.681C48.6197 85.681 42.2015 84.8396 37.5982 83.5014L37.5003 83.4728L37.3999 83.4431C37.7717 83.0824 38.272 82.7217 38.9041 82.3706C39.9849 81.7703 41.402 81.2256 43.09 80.7668C46.4646 79.8496 50.8651 79.291 55.6889 79.291H55.698ZM57.216 78.3095C58.0462 76.5359 59.1778 74.5852 60.6262 72.66C65.7865 72.9472 70.3773 73.6808 73.9033 74.7058C76.2116 75.3768 78.0068 76.1567 79.2022 76.9782C80.4292 77.8215 80.8171 78.5568 80.8171 79.1036C80.8171 79.6504 80.4292 80.3857 79.2022 81.2289C78.2144 81.9079 76.8169 82.5583 75.0588 83.1424C74.6159 82.5997 73.996 82.1082 73.256 81.6671C72.1061 80.9817 70.6045 80.3812 68.8472 79.8842C65.6894 78.9912 61.6514 78.4173 57.216 78.3095ZM32 38.4535V21.2373C27.4277 23.0753 23.0859 25.1491 19.9219 27.2399C18.2593 28.3385 16.9473 29.4254 16.0966 30.4657C15.2413 31.5115 14.9066 32.4407 15.0408 33.2542C15.1376 33.8406 15.6034 34.439 16.5416 35.0265C17.4703 35.6079 18.7811 36.1262 20.3953 36.5799C23.492 37.4503 27.6005 38.0545 32 38.4535ZM110.38 4.61137C109.857 4.69179 109.34 4.77221 108.824 4.85332L108.669 3.86547C109.186 3.78417 109.704 3.70358 110.228 3.623L110.38 4.61137ZM105.717 5.35538C104.711 5.52249 103.686 5.6975 102.615 5.88548L102.442 4.90054C103.516 4.71203 104.544 4.53651 105.553 4.3689L105.717 5.35538ZM99.5176 6.44265C99.0146 6.53517 98.4991 6.63092 97.9691 6.7303C97.4485 6.8279 96.9022 6.92961 96.3394 7.03391L96.1572 6.05065C96.7195 5.94644 97.2651 5.84486 97.7848 5.74743C98.3159 5.64784 98.8325 5.55188 99.3367 5.45915L99.5176 6.44265ZM92.3728 7.76439C91.5016 7.92434 90.6405 8.08245 89.8191 8.23388L89.6378 7.25045C90.4573 7.09937 91.3165 6.94162 92.1853 6.78211L92.192 6.78087L92.8982 6.65121L93.0788 7.63476L92.3728 7.76439ZM86.5618 8.84048C85.9295 8.96024 85.3801 9.06627 84.9418 9.15393L84.7457 8.17335C85.1888 8.08472 85.742 7.97798 86.3757 7.85795L86.5618 8.84048Z" fill="white" fill-opacity="0.4"/>
<rect x="39.5" y="10.5" width="31" height="31" rx="5.5" stroke="#44DAC8"/>
<ellipse cx="55.1351" cy="84.2523" rx="1.8187" ry="1.8187" fill="#44DAC8"/>
</svg>
