<svg width="24" height="24" viewBox="0 0 24 24" fill="none" xmlns="http://www.w3.org/2000/svg">
<path d="M0.5 6.20711L6.20711 0.5H23.5V17.7929L17.7929 23.5H0.5V6.20711Z" fill="#44DAC8" stroke="#44DAC8"/>
<path d="M5.64645 13.8536C5.45118 13.6583 5.45118 13.3417 5.64645 13.1464L8.82843 9.96447C9.02369 9.7692 9.34027 9.7692 9.53553 9.96447C9.7308 10.1597 9.7308 10.4763 9.53553 10.6716L6.70711 13.5L9.53553 16.3284C9.7308 16.5237 9.7308 16.8403 9.53553 17.0355C9.34027 17.2308 9.02369 17.2308 8.82843 17.0355L5.64645 13.8536ZM17.5 10C17.5 9.72386 17.7239 9.5 18 9.5C18.2761 9.5 18.5 9.72386 18.5 10H17.5ZM18 13.5H18.5C18.5 13.7761 18.2761 14 18 14V13.5ZM12 14H6V13H12V14ZM18.5 10V13.5H17.5V10H18.5ZM18 14H12V13H18V14Z" fill="#121212"/>
</svg>
