<svg width="36" height="36" viewBox="0 0 36 36" fill="none" xmlns="http://www.w3.org/2000/svg">
    <rect width="36" height="36" rx="18" fill="white" fill-opacity="0.06" />
    <path fill-rule="evenodd" clip-rule="evenodd"
        d="M10 12.5508C10 11.032 11.2312 9.80078 12.75 9.80078H18.1918C18.606 9.80078 18.9418 10.1366 18.9418 10.5508C18.9418 10.965 18.606 11.3008 18.1918 11.3008H12.75C12.0596 11.3008 11.5 11.8604 11.5 12.5508V23.4344C11.5 24.1247 12.0596 24.6843 12.75 24.6843H18.1918C18.606 24.6843 18.9418 25.0201 18.9418 25.4343C18.9418 25.8486 18.606 26.1843 18.1918 26.1843H12.75C11.2312 26.1843 10 24.9531 10 23.4344V12.5508ZM21.7978 14.5361C22.0907 14.2432 22.5656 14.2432 22.8585 14.5361L25.7819 17.4595C26.0748 17.7524 26.0748 18.2273 25.7819 18.5201L22.8585 21.4436C22.5656 21.7364 22.0907 21.7364 21.7978 21.4436C21.5049 21.1507 21.5049 20.6758 21.7978 20.3829L23.4401 18.7406H14.9274C14.5132 18.7406 14.1774 18.4048 14.1774 17.9906C14.1774 17.5764 14.5132 17.2406 14.9274 17.2406H23.4416L21.7978 15.5967C21.5049 15.3038 21.5049 14.829 21.7978 14.5361Z"
        fill="white" fill-opacity="0.6" />
</svg>