<svg width="16" height="16" viewBox="0 0 16 16" fill="none" xmlns="http://www.w3.org/2000/svg">
<path fill-rule="evenodd" clip-rule="evenodd" d="M0.162109 2.79688C0.162109 1.27809 1.39333 0.046875 2.91211 0.046875H8.11211C8.52632 0.046875 8.86211 0.382661 8.86211 0.796875C8.86211 1.21109 8.52632 1.54688 8.11211 1.54688H2.91211C2.22175 1.54688 1.66211 2.10652 1.66211 2.79688V13.1969C1.66211 13.8872 2.22175 14.4469 2.91211 14.4469H8.11211C8.52632 14.4469 8.86211 14.7827 8.86211 15.1969C8.86211 15.6111 8.52632 15.9469 8.11211 15.9469H2.91211C1.39333 15.9469 0.162109 14.7157 0.162109 13.1969V2.79688ZM11.5849 4.64154C11.8778 4.34865 12.3527 4.34865 12.6456 4.64154L15.474 7.46997C15.7669 7.76287 15.7669 8.23774 15.474 8.53063L12.6456 11.3591C12.3527 11.652 11.8778 11.652 11.5849 11.3591C11.292 11.0662 11.292 10.5913 11.5849 10.2984L13.1329 8.75042H4.95563C4.54142 8.75042 4.20563 8.41464 4.20563 8.00042C4.20563 7.58621 4.54142 7.25042 4.95563 7.25042H13.1331L11.5849 5.70221C11.292 5.40931 11.292 4.93444 11.5849 4.64154Z" fill="white"/>
</svg>
