<svg width="48" height="48" viewBox="0 0 48 48" fill="none" xmlns="http://www.w3.org/2000/svg">
<path fill-rule="evenodd" clip-rule="evenodd" d="M2 24.0005C2 11.8714 11.8715 2 23.9995 2C36.1286 2 46 11.8714 46 24.0005C46 36.1285 36.1286 46 23.9995 46C11.8714 46 2 36.1286 2 24.0005ZM23.9995 0C10.7669 0 0 10.7669 0 24.0005C0 37.2331 10.7669 48 23.9995 48C37.2331 48 48 37.2331 48 24.0005C48 10.7669 37.2331 0 23.9995 0ZM25.5881 26.4511L25.9007 13.9488C25.9274 12.8805 25.0686 12 24 12C22.9314 12 22.0726 12.8805 22.0993 13.9488L22.4119 26.4511C22.4334 27.3127 23.1381 28 24 28C24.8619 28 25.5666 27.3127 25.5881 26.4511ZM24 10C21.8072 10 20.0452 11.8067 20.1 13.9988L20.4125 26.5011C20.4612 28.4475 22.053 30 24 30C25.947 30 27.5388 28.4475 27.5875 26.5011L27.9 13.9988C27.9548 11.8067 26.1928 10 24 10ZM22.5 34.5C22.5 35.3282 23.1721 36 24 36C24.8286 36 25.5 35.3286 25.5 34.5C25.5 33.6714 24.8286 33 24 33C23.1721 33 22.5 33.6718 22.5 34.5ZM20.5 34.5C20.5 36.4332 22.068 38 24 38C25.9332 38 27.5 36.4332 27.5 34.5C27.5 32.5668 25.9332 31 24 31C22.068 31 20.5 32.5668 20.5 34.5Z" fill="#E35461"/>
</svg>
