<svg width="15" height="13" viewBox="0 0 15 13" fill="none" xmlns="http://www.w3.org/2000/svg">
<path fill-rule="evenodd" clip-rule="evenodd" d="M6.82653 6.28344C6.97396 6.43088 7.04718 6.62443 7.04618 6.81768C7.04718 7.01092 6.97396 7.20447 6.82653 7.35191C6.80462 7.37381 6.78171 7.39407 6.75792 7.4127L1.39165 12.779C1.09876 13.0719 0.62389 13.0719 0.330997 12.779C0.038105 12.4861 0.038105 12.0112 0.330997 11.7183L5.23163 6.81768L0.330997 1.91705C0.038105 1.62416 0.038105 1.14928 0.330997 0.856388C0.62389 0.563496 1.09876 0.563495 1.39165 0.856388L6.75792 6.22265C6.78171 6.24128 6.80462 6.26154 6.82653 6.28344ZM13.8265 6.28344C13.974 6.43088 14.0472 6.62443 14.0462 6.81768C14.0472 7.01092 13.974 7.20447 13.8265 7.35191C13.8046 7.37381 13.7817 7.39407 13.7579 7.4127L8.39165 12.779C8.09876 13.0719 7.62389 13.0719 7.331 12.779C7.03811 12.4861 7.03811 12.0112 7.331 11.7183L12.2316 6.81768L7.331 1.91705C7.03811 1.62416 7.03811 1.14928 7.331 0.856388C7.62389 0.563496 8.09876 0.563495 8.39165 0.856388L13.7579 6.22265C13.7817 6.24128 13.8046 6.26154 13.8265 6.28344Z" fill="white" fill-opacity="0.4"/>
</svg>
