<svg width="40" height="40" viewBox="0 0 40 40" fill="none" xmlns="http://www.w3.org/2000/svg">
<rect x="0.5" y="0.5" width="39" height="39" rx="7.5" stroke="white" stroke-opacity="0.4"/>
<path fill-rule="evenodd" clip-rule="evenodd" d="M14.613 14.0466C14.613 18.3121 18.0885 19.9141 19.9842 19.7531C21.88 19.9141 25.3555 18.3121 25.3555 14.0466C25.3554 9.75795 22.7636 8.89844 19.9842 8.89844C17.2049 8.89844 14.613 9.75795 14.613 14.0466ZM15.9262 21.1677C15.9439 21.1666 15.9617 21.1656 15.9795 21.1647C16.6171 21.449 17.6335 22.1276 19.9842 22.1276C22.335 22.1276 23.2251 21.449 23.9904 21.1632L24.0387 21.1657L24.0738 21.1677C30.2132 21.8474 29.5203 23.3905 29.7932 25.043L29.8104 25.1468C29.9929 26.2238 30 28.009 30 28.7203C29.8104 28.9867 29.1531 29.7225 26.7772 30.4272C24.5237 31.0438 22.094 31.1157 20.1106 31.1204L20 31.1206L19.8894 31.1207C17.906 31.116 15.4763 31.0438 13.2228 30.4272C10.8469 29.7225 10.1896 28.9867 10 28.7203C10 28.009 10.0071 26.2238 10.1896 25.1468L10.2068 25.043C10.4797 23.3905 9.78684 21.8474 15.9262 21.1677Z" stroke="white"/>
<path fill-rule="evenodd" clip-rule="evenodd" d="M20.6016 24.1C20.6016 23.7686 20.3329 23.5 20.0016 23.5C19.6702 23.5 19.4016 23.7686 19.4016 24.1V25.8984H17.6C17.2686 25.8984 17 26.1671 17 26.4984C17 26.8298 17.2686 27.0984 17.6 27.0984H19.4016V28.9C19.4016 29.2314 19.6702 29.5 20.0016 29.5C20.3329 29.5 20.6016 29.2314 20.6016 28.9V27.0984H22.4C22.7314 27.0984 23 26.8298 23 26.4984C23 26.1671 22.7314 25.8984 22.4 25.8984H20.6016V24.1Z" fill="#44DAC8"/>
</svg>
