<svg width="24" height="24" viewBox="0 0 24 24" fill="none" xmlns="http://www.w3.org/2000/svg">
<path fill-rule="evenodd" clip-rule="evenodd" d="M19.5 10.5C19.5 15.4706 15.4706 19.5 10.5 19.5C5.52944 19.5 1.5 15.4706 1.5 10.5C1.5 5.52944 5.52944 1.5 10.5 1.5C15.4706 1.5 19.5 5.52944 19.5 10.5ZM21 10.5C21 16.299 16.299 21 10.5 21C4.70101 21 0 16.299 0 10.5C0 4.70101 4.70101 0 10.5 0C16.299 0 21 4.70101 21 10.5ZM22.5 21C22.5 21.8284 21.8284 22.5 21 22.5C20.1716 22.5 19.5 21.8284 19.5 21C19.5 20.1716 20.1716 19.5 21 19.5C21.8284 19.5 22.5 20.1716 22.5 21ZM24 21C24 22.6569 22.6569 24 21 24C19.3431 24 18 22.6569 18 21C18 19.3431 19.3431 18 21 18C22.6569 18 24 19.3431 24 21Z" fill="white"/>
</svg>
