<svg width="20" height="20" viewBox="0 0 20 20" fill="none" xmlns="http://www.w3.org/2000/svg">
<rect width="20" height="20" rx="10" fill="white"/>
<path fill-rule="evenodd" clip-rule="evenodd" d="M15.995 6.03471C15.995 7.15845 15.084 8.06943 13.9606 8.06943C12.8367 8.06943 11.9258 7.15845 11.9258 6.03471C11.9258 4.91097 12.8367 4 13.9606 4C15.084 4 15.995 4.91097 15.995 6.03471ZM3.99609 16.5773H13.9656V14.5426H6.27714V6.07386H3.99609V16.5773Z" fill="white"/>
<path fill-rule="evenodd" clip-rule="evenodd" d="M15.995 6.03471C15.995 7.15845 15.084 8.06943 13.9606 8.06943C12.8367 8.06943 11.9258 7.15845 11.9258 6.03471C11.9258 4.91097 12.8367 4 13.9606 4C15.084 4 15.995 4.91097 15.995 6.03471ZM3.99609 16.5773H13.9656V14.5426H6.27714V6.07386H3.99609V16.5773Z" fill="black"/>
</svg>
