<svg width="16" height="16" viewBox="0 0 16 16" fill="none" xmlns="http://www.w3.org/2000/svg">
    <path fill-rule="evenodd" clip-rule="evenodd"
        d="M2.5 2C2.5 2.27614 2.27614 2.5 2 2.5C1.72386 2.5 1.5 2.27614 1.5 2C1.5 1.72386 1.72386 1.5 2 1.5C2.27614 1.5 2.5 1.72386 2.5 2ZM4 2C4 3.10457 3.10457 4 2 4C0.895431 4 0 3.10457 0 2C0 0.895431 0.895431 0 2 0C3.10457 0 4 0.895431 4 2ZM2.5 8C2.5 8.27614 2.27614 8.5 2 8.5C1.72386 8.5 1.5 8.27614 1.5 8C1.5 7.72386 1.72386 7.5 2 7.5C2.27614 7.5 2.5 7.72386 2.5 8ZM4 8C4 9.10457 3.10457 10 2 10C0.895431 10 0 9.10457 0 8C0 6.89543 0.895431 6 2 6C3.10457 6 4 6.89543 4 8ZM2 14.5C2.27614 14.5 2.5 14.2761 2.5 14C2.5 13.7239 2.27614 13.5 2 13.5C1.72386 13.5 1.5 13.7239 1.5 14C1.5 14.2761 1.72386 14.5 2 14.5ZM2 16C3.10457 16 4 15.1046 4 14C4 12.8954 3.10457 12 2 12C0.895431 12 0 12.8954 0 14C0 15.1046 0.895431 16 2 16ZM5.75 1.25C5.33579 1.25 5 1.58579 5 2C5 2.41421 5.33579 2.75 5.75 2.75H15.25C15.6642 2.75 16 2.41421 16 2C16 1.58579 15.6642 1.25 15.25 1.25H5.75ZM5 8C5 7.58579 5.33579 7.25 5.75 7.25H15.25C15.6642 7.25 16 7.58579 16 8C16 8.41421 15.6642 8.75 15.25 8.75H5.75C5.33579 8.75 5 8.41421 5 8ZM5.75 13.25C5.33579 13.25 5 13.5858 5 14C5 14.4142 5.33579 14.75 5.75 14.75H15.25C15.6642 14.75 16 14.4142 16 14C16 13.5858 15.6642 13.25 15.25 13.25H5.75Z"
        fill="white" fill-opacity="0.6" />
</svg>