<svg width="32" height="32" viewBox="0 0 32 32" fill="none" xmlns="http://www.w3.org/2000/svg">
<path fill-rule="evenodd" clip-rule="evenodd" d="M28.7636 0C30.5511 0 32 1.449 32 3.23643V28.7636C32 30.5511 30.5511 32 28.7636 32H3.23643C1.44899 32 0 30.5511 0 28.7636V3.23643C0 1.44899 1.449 0 3.23643 0H28.7636ZM14.4864 3.32071H4.42812C3.83231 3.32071 3.34931 3.80371 3.34931 4.39952V8.75625C3.34931 9.3351 4.51091 9.74007 5.02721 9.47838C5.5245 9.22632 6.08698 9.08429 6.68265 9.08429C8.7077 9.08429 10.3493 10.7259 10.3493 12.751C10.3493 14.776 8.7077 16.4177 6.68265 16.4177C6.08698 16.4177 5.5245 16.2756 5.02721 16.0236C4.51089 15.7619 3.34931 16.1668 3.34931 16.7456V27.5753C3.34931 28.1711 3.8323 28.6541 4.42812 28.6541H27.6038C28.1997 28.6541 28.6827 28.1711 28.6827 27.5753V16.7456C28.6827 16.1668 27.5211 15.7619 27.0048 16.0236C26.5075 16.2756 25.945 16.4177 25.3493 16.4177C23.3243 16.4177 21.6827 14.776 21.6827 12.751C21.6827 10.7259 23.3243 9.08429 25.3493 9.08429C25.945 9.08429 26.5075 9.22632 27.0048 9.47838C27.5211 9.74006 28.6827 9.3351 28.6827 8.75625V4.39952C28.6827 3.80371 28.1997 3.32071 27.6038 3.32071H17.5457L14.4864 3.32267V3.32071ZM18.1564 20.5396C19.0798 20.5396 19.8285 21.2882 19.8285 22.2117C19.8285 23.1352 19.0798 23.8839 18.1564 23.8839H13.8411C12.9177 23.8839 12.169 23.1352 12.169 22.2117C12.169 21.2882 12.9177 20.5396 13.8411 20.5396H18.1564Z" fill="white"/>
</svg>
