<svg width="18" height="16" viewBox="0 0 18 16" fill="none" xmlns="http://www.w3.org/2000/svg">
<path fill-rule="evenodd" clip-rule="evenodd" d="M0 1C0 0.447716 0.447708 0 1 0H9C9.55229 0 10 0.447716 10 1C10 1.55228 9.55229 2 9 2H1C0.447708 2 0 1.55228 0 1ZM0 8C0 7.44772 0.447708 7 1 7H17C17.5523 7 18 7.44772 18 8C18 8.55228 17.5523 9 17 9H1C0.447708 9 0 8.55228 0 8ZM1 14C0.447708 14 0 14.4477 0 15C0 15.5523 0.447708 16 1 16H9C9.55229 16 10 15.5523 10 15C10 14.4477 9.55229 14 9 14H1Z" fill="white" fill-opacity="0.6"/>
</svg>
