<svg width="16" height="16" viewBox="0 0 16 16" fill="none" xmlns="http://www.w3.org/2000/svg">
<path fill-rule="evenodd" clip-rule="evenodd" d="M0 2C0 1.58579 0.335786 1.25 0.75 1.25H15.25C15.6642 1.25 16 1.58579 16 2C16 2.41421 15.6642 2.75 15.25 2.75H0.75C0.335786 2.75 0 2.41421 0 2ZM0 8C0 7.58579 0.335786 7.25 0.75 7.25H15.25C15.6642 7.25 16 7.58579 16 8C16 8.41421 15.6642 8.75 15.25 8.75H0.75C0.335786 8.75 0 8.41421 0 8ZM0.75 13.25C0.335786 13.25 0 13.5858 0 14C0 14.4142 0.335786 14.75 0.75 14.75H15.25C15.6642 14.75 16 14.4142 16 14C16 13.5858 15.6642 13.25 15.25 13.25H0.75Z" fill="white"/>
</svg>
