<svg width="16" height="16" viewBox="0 0 16 16" fill="none" xmlns="http://www.w3.org/2000/svg">
    <path fill-rule="evenodd" clip-rule="evenodd"
        d="M8.71562 1.68171L13.4656 4.26022C13.949 4.52261 14.25 5.0285 14.25 5.5785V10.4226C14.25 10.9726 13.949 11.4785 13.4656 11.7409L8.71562 14.3194C8.2693 14.5617 7.7307 14.5617 7.28438 14.3194L2.53438 11.7409C2.051 11.4785 1.75 10.9726 1.75 10.4226V5.57851C1.75 5.02851 2.051 4.52261 2.53438 4.26022L7.28438 1.68171C7.7307 1.43943 8.2693 1.43943 8.71562 1.68171ZM6.56875 0.363424C7.4614 -0.121141 8.5386 -0.121141 9.43125 0.363424L14.1812 2.94193C15.148 3.46672 15.75 4.47851 15.75 5.5785V10.4226C15.75 11.5226 15.148 12.5344 14.1812 13.0592L9.43125 15.6377C8.5386 16.1222 7.4614 16.1222 6.56875 15.6377L1.81875 13.0592C0.852008 12.5344 0.25 11.5226 0.25 10.4226V5.57851C0.25 4.47851 0.852009 3.46672 1.81875 2.94193L6.56875 0.363424ZM4.48086 5.23984C4.11682 5.04222 3.66152 5.17713 3.4639 5.54117C3.26629 5.9052 3.4012 6.36051 3.76524 6.55813L7.24805 8.44875V11.6837C7.24805 12.0979 7.58383 12.4337 7.99805 12.4337C8.41226 12.4337 8.74805 12.0979 8.74805 11.6837V8.44875L12.2309 6.55813C12.5949 6.36051 12.7298 5.9052 12.5322 5.54117C12.3346 5.17713 11.8793 5.04222 11.5152 5.23984L7.99805 7.14912L4.48086 5.23984Z"
        fill="white" />
</svg>