<?xml version="1.0" encoding="UTF-8"?>
<svg xmlns="http://www.w3.org/2000/svg" width="43" height="43" viewBox="0 0 43 43" fill="none">
  <circle cx="21.5" cy="21.5" r="21.5" fill="url(#paint0_linear_8935_6234)"></circle>
  <path d="M27.6023 25.9985L33.5727 22.5928C33.8892 22.4119 34.0848 22.0764 34.0848 21.7164V14.905C34.0848 14.5449 33.8892 14.2094 33.5727 14.0285L27.6023 10.6228C27.2858 10.4419 26.8929 10.4437 26.5782 10.6228L20.6078 14.0285C20.2913 14.2094 20.0957 14.5449 20.0957 14.905V27.0769L15.9086 29.4639L11.7215 27.0769V22.3012L15.9086 19.9143L18.6698 21.4898V18.2861L16.4207 17.0021C16.266 16.9143 16.0882 16.8669 15.9086 16.8669C15.729 16.8669 15.5512 16.9143 15.3965 17.0021L9.42612 20.4078C9.10964 20.5887 8.91406 20.9242 8.91406 21.2843V28.0957C8.91406 28.4557 9.10964 28.7912 9.42612 28.9721L15.3965 32.3778C15.713 32.557 16.1042 32.557 16.4207 32.3778L22.3911 28.9721C22.7076 28.7912 22.9031 28.4557 22.9031 28.0957V15.9219L22.9778 15.8798L27.0885 13.535L31.2756 15.9219V20.6976L27.0885 23.0846L24.3308 21.5126V24.7163L26.5764 25.9967C26.8929 26.1759 27.2858 26.1759 27.6005 25.9967L27.6023 25.9985Z" fill="white"></path>
  <defs>
    <linearGradient id="paint0_linear_8935_6234" x1="-0.139719" y1="35.6769" x2="43.5237" y2="13.2319" gradientUnits="userSpaceOnUse">
      <stop stop-color="#A726C1"></stop>
      <stop offset="0.88" stop-color="#803BDF"></stop>
      <stop offset="1" stop-color="#7B3FE4"></stop>
    </linearGradient>
  </defs>
</svg>
