<svg width="12" height="12" viewBox="0 0 12 12" fill="none" xmlns="http://www.w3.org/2000/svg">
    <path fill-rule="evenodd" clip-rule="evenodd"
        d="M11 6C11 8.76142 8.76142 11 6 11C3.23858 11 1 8.76142 1 6C1 3.23858 3.23858 1 6 1C8.76142 1 11 3.23858 11 6ZM12 6C12 9.31371 9.31371 12 6 12C2.68629 12 0 9.31371 0 6C0 2.68629 2.68629 0 6 0C9.31371 0 12 2.68629 12 6ZM6.27246 7.83203H5.1709V8.93359H6.27246V7.83203ZM7.61621 5.09375C7.6709 4.91406 7.69824 4.71224 7.69824 4.48828C7.69824 4.0013 7.52637 3.63151 7.18262 3.37891C6.83887 3.1263 6.36751 3 5.76855 3C5.25814 3 4.81413 3.09375 4.43652 3.28125L4.2998 3.34766L4.62402 4.11328L4.77246 4.05078C4.88184 4.00391 5.02116 3.96354 5.19043 3.92969C5.3623 3.89583 5.51986 3.87891 5.66309 3.87891C5.83756 3.87891 5.99121 3.89583 6.12402 3.92969C6.25684 3.96354 6.361 4.00521 6.43652 4.05469C6.51204 4.10417 6.57324 4.16276 6.62012 4.23047C6.66699 4.29818 6.69694 4.36068 6.70996 4.41797C6.72559 4.47526 6.7334 4.53516 6.7334 4.59766C6.7334 4.72786 6.70605 4.84766 6.65137 4.95703C6.59668 5.06641 6.52506 5.16276 6.43652 5.24609C6.34798 5.32943 6.24902 5.41406 6.13965 5.5C6.03288 5.58333 5.92611 5.67839 5.81934 5.78516C5.71256 5.88932 5.61491 6.00521 5.52637 6.13281C5.43783 6.25781 5.36621 6.41536 5.31152 6.60547C5.25684 6.79557 5.22949 7.00781 5.22949 7.24219V7.40234H6.21387V7.24219C6.21387 7.0651 6.24121 6.90625 6.2959 6.76562C6.35059 6.625 6.4209 6.50651 6.50684 6.41016C6.59538 6.3138 6.69173 6.22135 6.7959 6.13281C6.90267 6.04427 7.00814 5.95182 7.1123 5.85547C7.21908 5.75651 7.31543 5.64974 7.40137 5.53516C7.48991 5.41797 7.56152 5.27083 7.61621 5.09375Z"
        fill="#121212" />
</svg>