<svg width="12" height="12" viewBox="0 0 12 12" fill="none" xmlns="http://www.w3.org/2000/svg">
<circle cx="6" cy="6" r="5.5" stroke="#17B09E"/>
<path d="M5.1709 7.83203H6.27246V8.93359H5.1709V7.83203ZM7.69824 4.48828C7.69824 4.71224 7.6709 4.91406 7.61621 5.09375C7.56152 5.27083 7.48991 5.41797 7.40137 5.53516C7.31543 5.64974 7.21908 5.75651 7.1123 5.85547C7.00814 5.95182 6.90267 6.04427 6.7959 6.13281C6.69173 6.22135 6.59538 6.3138 6.50684 6.41016C6.4209 6.50651 6.35059 6.625 6.2959 6.76562C6.24121 6.90625 6.21387 7.0651 6.21387 7.24219V7.40234H5.22949V7.24219C5.22949 7.00781 5.25684 6.79557 5.31152 6.60547C5.36621 6.41536 5.43783 6.25781 5.52637 6.13281C5.61491 6.00521 5.71257 5.88932 5.81934 5.78516C5.92611 5.67839 6.03288 5.58333 6.13965 5.5C6.24902 5.41406 6.34798 5.32943 6.43652 5.24609C6.52507 5.16276 6.59668 5.06641 6.65137 4.95703C6.70605 4.84766 6.7334 4.72786 6.7334 4.59766C6.7334 4.53516 6.72559 4.47526 6.70996 4.41797C6.69694 4.36068 6.66699 4.29818 6.62012 4.23047C6.57324 4.16276 6.51204 4.10417 6.43652 4.05469C6.361 4.00521 6.25684 3.96354 6.12402 3.92969C5.99121 3.89583 5.83757 3.87891 5.66309 3.87891C5.51986 3.87891 5.3623 3.89583 5.19043 3.92969C5.02116 3.96354 4.88184 4.00391 4.77246 4.05078L4.62402 4.11328L4.2998 3.34766L4.43652 3.28125C4.81413 3.09375 5.25814 3 5.76855 3C6.36751 3 6.83887 3.1263 7.18262 3.37891C7.52637 3.63151 7.69824 4.0013 7.69824 4.48828Z" fill="#17B09E"/>
</svg>
