<svg width="16" height="16" viewBox="0 0 16 16" fill="none" xmlns="http://www.w3.org/2000/svg">
    <path fill-rule="evenodd" clip-rule="evenodd"
        d="M13 7C13 10.3137 10.3137 13 7 13C3.68629 13 1 10.3137 1 7C1 3.68629 3.68629 1 7 1C10.3137 1 13 3.68629 13 7ZM14 7C14 10.866 10.866 14 7 14C3.13401 14 0 10.866 0 7C0 3.13401 3.13401 0 7 0C10.866 0 14 3.13401 14 7ZM15 14C15 14.5523 14.5523 15 14 15C13.4477 15 13 14.5523 13 14C13 13.4477 13.4477 13 14 13C14.5523 13 15 13.4477 15 14ZM16 14C16 15.1046 15.1046 16 14 16C12.8954 16 12 15.1046 12 14C12 12.8954 12.8954 12 14 12C15.1046 12 16 12.8954 16 14Z"
        fill="white" fill-opacity="0.6" />
    <path
        d="M6.384 7.944C6.216 6.688 7.92 6.408 7.92 5.632C7.92 5.144 7.536 4.872 6.904 4.872C6.416 4.872 6.016 5.096 5.624 5.504L4.968 4.904C5.48 4.312 6.184 3.92 7.04 3.92C8.2 3.92 9.048 4.464 9.048 5.528C9.048 6.696 7.296 6.84 7.424 7.944H6.384ZM6.912 10.08C6.496 10.08 6.2 9.784 6.2 9.368C6.2 8.952 6.504 8.664 6.912 8.664C7.312 8.664 7.616 8.952 7.616 9.368C7.616 9.784 7.312 10.08 6.912 10.08Z"
        fill="white" fill-opacity="0.6" />
</svg>