<svg width="16" height="16" viewBox="0 0 16 16" fill="none" xmlns="http://www.w3.org/2000/svg">
<circle cx="8" cy="8" r="7.5" stroke="white" stroke-opacity="0.4"/>
<path d="M7.20066 11.295H8.51275V12.6071H7.20066V11.295ZM7.93543 3.17969C8.87139 3.17969 9.5996 3.36775 10.1201 3.74389C10.6449 4.11565 10.9073 4.6711 10.9073 5.41024C10.9073 5.76888 10.8614 6.09034 10.7695 6.37463C10.6777 6.65454 10.5574 6.88853 10.4087 7.07659C10.2644 7.26029 10.1026 7.43305 9.92325 7.59487C9.7483 7.75232 9.57117 7.90759 9.39185 8.06066C9.21691 8.20937 9.05508 8.369 8.90638 8.53958C8.76205 8.71015 8.64396 8.92227 8.55211 9.17594C8.46027 9.42961 8.41434 9.71608 8.41434 10.0354H7.29907C7.29907 9.65923 7.34499 9.31808 7.43684 9.01193C7.52868 8.70577 7.64896 8.4521 7.79766 8.25092C7.94637 8.04973 8.11038 7.86604 8.2897 7.69984C8.46901 7.52927 8.64833 7.37182 8.82765 7.22749C9.01135 7.08316 9.17754 6.93883 9.32625 6.7945C9.47495 6.64579 9.59523 6.47085 9.68707 6.26966C9.77892 6.0641 9.82484 5.83886 9.82484 5.59393C9.82484 5.4671 9.80953 5.34464 9.77892 5.22655C9.7483 5.10409 9.68707 4.97288 9.59523 4.83292C9.50338 4.69296 9.3831 4.57269 9.2344 4.4721C9.09007 4.3715 8.89107 4.2884 8.6374 4.2228C8.38373 4.15282 8.0907 4.11783 7.7583 4.11783C7.509 4.11783 7.22909 4.14845 6.91856 4.20968C6.61241 4.26654 6.35874 4.3387 6.15755 4.42617L5.81641 3.6258C6.42434 3.32839 7.13068 3.17969 7.93543 3.17969Z" fill="white" fill-opacity="0.4"/>
</svg>
