<svg width="20" height="20" viewBox="0 0 20 20" fill="none" xmlns="http://www.w3.org/2000/svg">
<path fill-rule="evenodd" clip-rule="evenodd" d="M2.10569 9.49233L1.17387 8.56051C0.978604 8.36525 0.662021 8.36525 0.466759 8.56051C0.271497 8.75577 0.271497 9.07235 0.466759 9.26762L2.23453 11.0354C2.42979 11.2306 2.74637 11.2306 2.94163 11.0354L4.7094 9.26762C4.90466 9.07235 4.90466 8.75577 4.7094 8.56051C4.51414 8.36525 4.19756 8.36525 4.00229 8.56051L3.11099 9.45181C3.39062 5.84204 6.40833 3 10.0898 3C12.3797 3 14.4127 4.09894 15.6906 5.80029C15.8565 6.02108 16.1699 6.06563 16.3907 5.89978C16.6115 5.73394 16.656 5.42051 16.4902 5.19971C15.0315 3.25772 12.7075 2 10.0898 2C5.84209 2 2.36756 5.31059 2.10569 9.49233ZM16.0039 12.2676L16.969 11.3026C16.3588 14.546 13.5105 17 10.0898 17C7.80002 17 5.76701 15.9011 4.48908 14.1997C4.32323 13.9789 4.0098 13.9344 3.78901 14.1002C3.56821 14.2661 3.52367 14.5795 3.68951 14.8003C5.14819 16.7423 7.47221 18 10.0898 18C14.0298 18 17.3039 15.1522 17.9672 11.4025L18.8324 12.2676C19.0276 12.4629 19.3442 12.4629 19.5395 12.2676C19.7347 12.0724 19.7347 11.7558 19.5395 11.5605L17.7717 9.79274C17.5764 9.59748 17.2599 9.59748 17.0646 9.79274L15.2968 11.5605C15.1016 11.7558 15.1016 12.0724 15.2968 12.2676C15.4921 12.4629 15.8087 12.4629 16.0039 12.2676Z" fill="#17B09E"/>
</svg>
