<svg width="12" height="14" viewBox="0 0 12 14" fill="none" xmlns="http://www.w3.org/2000/svg">
    <path fill-rule="evenodd" clip-rule="evenodd"
        d="M10 13H2C1.44772 13 1 12.5523 1 12V2C1 1.44772 1.44772 1 2 1H7.08008V3.422C7.08008 4.25043 7.75165 4.922 8.58008 4.922H11V7V12C11 12.5523 10.5523 13 10 13ZM12 4.922H12.0021V3.922H12V3.5L8.5 0H8.08008H7.08008H2C0.895431 0 0 0.89543 0 2V12C0 13.1046 0.895431 14 2 14H10C11.1046 14 12 13.1046 12 12V7V4.922ZM8.08008 1H8.08579L11 3.91421V3.922H8.58008C8.30394 3.922 8.08008 3.69814 8.08008 3.422V1Z"
        fill="white" />
    <path fill-rule="evenodd" clip-rule="evenodd"
        d="M2.5 5.5C2.5 5.22386 2.72386 5 3 5H6C6.27614 5 6.5 5.22386 6.5 5.5C6.5 5.77614 6.27614 6 6 6H3C2.72386 6 2.5 5.77614 2.5 5.5ZM2.5 7.75C2.5 7.47386 2.72386 7.25 3 7.25H9C9.27614 7.25 9.5 7.47386 9.5 7.75C9.5 8.02614 9.27614 8.25 9 8.25H3C2.72386 8.25 2.5 8.02614 2.5 7.75ZM3 9.5C2.72386 9.5 2.5 9.72386 2.5 10C2.5 10.2761 2.72386 10.5 3 10.5H9C9.27614 10.5 9.5 10.2761 9.5 10C9.5 9.72386 9.27614 9.5 9 9.5H3Z"
        fill="#17B09E" />
</svg>