<svg width="17" height="17" viewBox="0 0 17 17" fill="none" xmlns="http://www.w3.org/2000/svg">
<path fill-rule="evenodd" clip-rule="evenodd" d="M2.9375 0.1875C1.41872 0.1875 0.1875 1.41872 0.1875 2.9375V4.59464H1.6875V2.9375C1.6875 2.24714 2.24714 1.6875 2.9375 1.6875H4.59464V0.1875H2.9375ZM11.9089 1.6875H13.5661C14.2564 1.6875 14.8161 2.24714 14.8161 2.9375V4.59464H16.3161V2.9375C16.3161 1.41872 15.0849 0.1875 13.5661 0.1875H11.9089V1.6875ZM1.6875 13.5661V11.9089H0.1875V13.5661C0.1875 15.0849 1.41872 16.3161 2.9375 16.3161H4.59464V14.8161H2.9375C2.24714 14.8161 1.6875 14.2564 1.6875 13.5661ZM14.8161 11.9089V13.5661C14.8161 14.2564 14.2564 14.8161 13.5661 14.8161H11.9089V16.3161H13.5661C15.0849 16.3161 16.3161 15.0849 16.3161 13.5661V11.9089H14.8161ZM5.28036 7.3375C4.90165 7.3375 4.59464 7.6445 4.59464 8.02321C4.59464 8.40192 4.90165 8.70893 5.28036 8.70893H11.2232C11.6019 8.70893 11.9089 8.40192 11.9089 8.02321C11.9089 7.6445 11.6019 7.3375 11.2232 7.3375H5.28036Z" fill="white" fill-opacity="0.6"/>
</svg>
