<svg width="36" height="36" viewBox="0 0 36 36" fill="none" xmlns="http://www.w3.org/2000/svg">
<circle cx="18" cy="18" r="18" fill="#0FC6B0"/>
<path fill-rule="evenodd" clip-rule="evenodd" d="M23.4899 17.1321C23.4899 13.6208 20.6434 10.7743 17.1321 10.7743C13.6208 10.7743 10.7743 13.6208 10.7743 17.1321C10.7743 20.6434 13.6208 23.4899 17.1321 23.4899C20.6434 23.4899 23.4899 20.6434 23.4899 17.1321ZM25.2642 17.1321C25.2642 12.6409 21.6233 9 17.1321 9C12.6409 9 9 12.6409 9 17.1321C9 21.6233 12.6409 25.2642 17.1321 25.2642C21.6233 25.2642 25.2642 21.6233 25.2642 17.1321ZM25.0779 23.1561C26.1394 23.1561 27 24.0166 27 25.0782C27 26.1398 26.1394 27.0003 25.0779 27.0003C24.0163 27.0003 23.1557 26.1398 23.1557 25.0782C23.1557 24.0166 24.0163 23.1561 25.0779 23.1561Z" fill="white"/>
</svg>
