<svg width="18" height="18" viewBox="0 0 18 18" fill="none" xmlns="http://www.w3.org/2000/svg">
    <path fill-rule="evenodd" clip-rule="evenodd"
        d="M14.6117 8.17522C14.6117 11.6073 11.8294 14.3895 8.39739 14.3895C4.96534 14.3895 2.18311 11.6073 2.18311 8.17522C2.18311 4.74317 4.96534 1.96094 8.39739 1.96094C11.8294 1.96094 14.6117 4.74317 14.6117 8.17522ZM13.2088 14.2056C11.8896 15.2594 10.2171 15.8895 8.39739 15.8895C4.13691 15.8895 0.683105 12.4357 0.683105 8.17522C0.683105 3.91474 4.13691 0.460938 8.39739 0.460938C12.6579 0.460938 16.1117 3.91474 16.1117 8.17522C16.1117 10.0758 15.4244 11.8158 14.2848 13.1603L17.1789 16.0544C17.4718 16.3473 17.4718 16.8222 17.1789 17.1151C16.886 17.408 16.4112 17.408 16.1183 17.1151L13.2088 14.2056Z"
        fill="white" fill-opacity="0.4" />
</svg>