<svg width="14" height="14" viewBox="0 0 14 14" fill="none" xmlns="http://www.w3.org/2000/svg">
<path fill-rule="evenodd" clip-rule="evenodd" d="M4 1.5C2.61929 1.5 1.5 2.61929 1.5 4V10C1.5 11.3807 2.61929 12.5 4 12.5H10C11.3807 12.5 12.5 11.3807 12.5 10V7C12.5 6.72386 12.7239 6.5 13 6.5C13.2761 6.5 13.5 6.72386 13.5 7V10C13.5 11.933 11.933 13.5 10 13.5H4C2.067 13.5 0.5 11.933 0.5 10V4C0.5 2.067 2.067 0.5 4 0.5H7C7.27614 0.5 7.5 0.723858 7.5 1C7.5 1.27614 7.27614 1.5 7 1.5H4ZM9.5 1C9.5 0.723858 9.72386 0.5 10 0.5H12C12.8284 0.5 13.5 1.17157 13.5 2V4C13.5 4.27614 13.2761 4.5 13 4.5C12.7239 4.5 12.5 4.27614 12.5 4V2.20711L7.72855 6.97855C7.53329 7.17382 7.21671 7.17382 7.02145 6.97855C6.82618 6.78329 6.82618 6.46671 7.02145 6.27145L11.7929 1.5H10C9.72386 1.5 9.5 1.27614 9.5 1Z" fill="#040405"/>
</svg>
