<svg width="16" height="16" viewBox="0 0 16 16" fill="none" xmlns="http://www.w3.org/2000/svg">
    <path fill-rule="evenodd" clip-rule="evenodd"
        d="M10.5 4C10.5 5.38071 9.38071 6.5 8 6.5C6.61929 6.5 5.5 5.38071 5.5 4C5.5 2.61929 6.61929 1.5 8 1.5C9.38071 1.5 10.5 2.61929 10.5 4ZM12 4C12 6.20914 10.2091 8 8 8C5.79086 8 4 6.20914 4 4C4 1.79086 5.79086 0 8 0C10.2091 0 12 1.79086 12 4ZM10.1358 10.2956C10.8105 9.77357 11.7428 9.73956 12.4536 10.2111L13.8329 11.1258C14.0934 11.2986 14.25 11.5905 14.25 11.9031V14.25C14.25 14.3881 14.1381 14.5 14 14.5H2C1.86193 14.5 1.75 14.3881 1.75 14.25V11.9031C1.75 11.5905 1.90662 11.2986 2.16715 11.1258L3.54637 10.2111C4.25724 9.73956 5.18955 9.77357 5.86417 10.2956C7.12178 11.2687 8.87822 11.2687 10.1358 10.2956ZM13.2827 8.96102C12.036 8.13413 10.401 8.19377 9.21785 9.10929C8.50076 9.66418 7.49924 9.66418 6.78215 9.10929C5.59901 8.19377 3.96397 8.13413 2.71727 8.96102L1.33804 9.87581C0.658521 10.3265 0.25 11.0877 0.25 11.9031V14.25C0.25 15.2165 1.0335 16 2 16H14C14.9665 16 15.75 15.2165 15.75 14.25V11.9031C15.75 11.0877 15.3415 10.3265 14.662 9.87581L13.2827 8.96102Z"
        fill="white" />
</svg>