<svg width="48" height="48" viewBox="0 0 48 48" fill="none" xmlns="http://www.w3.org/2000/svg">
<path d="M1 24.0005C1 11.3191 11.3192 1 23.9995 1C36.6808 1 47 11.3192 47 24.0005C47 36.6808 36.6809 47 23.9995 47C11.3192 47 1 36.6808 1 24.0005Z" stroke="#00C087" stroke-width="2"/>
<path fill-rule="evenodd" clip-rule="evenodd" d="M34.2129 16.4882C34.6035 16.0977 35.2366 16.0977 35.6272 16.4882C36.0177 16.8787 36.0177 17.5119 35.6271 17.9024L21.5336 31.9959C21.5182 32.0136 21.5021 32.0309 21.4853 32.0478C21.0948 32.4383 20.4616 32.4383 20.0711 32.0478L12.2929 24.2696C11.9024 23.8791 11.9024 23.2459 12.2929 22.8554C12.6834 22.4649 13.3166 22.4649 13.7071 22.8554L20.7764 29.9247L34.2129 16.4882Z" fill="#00C087"/>
</svg>
