<svg width="40" height="40" viewBox="0 0 40 40" fill="none" xmlns="http://www.w3.org/2000/svg">
    <circle cx="20" cy="20" r="19.5" stroke="white" stroke-opacity="0.4" />
    <path
        d="M12.4928 27.7687C12.1039 27.6993 10.6397 27.3231 10.2592 27.1997C8.83919 26.7008 8.4463 26.1798 8.33301 25.9911C8.33301 25.4876 8.33723 24.2235 8.4463 23.461L8.45658 23.3875C8.61973 22.2174 8.86385 21.3 12.5332 20.8187L12.5642 20.8166C12.9163 20.8342 14.1663 21.6675 16.0334 21.1455M16.6008 11.6588C16.1792 11.5181 15.6383 11.4688 15.1653 11.4688C13.5042 11.4688 11.955 12.0774 11.955 15.1138C11.955 18.1339 13.9088 19.0279 15.1652 19.1543C15.6007 19.1981 16.5402 19.112 17.083 18.7509M27.6259 27.6177C27.9829 27.5504 29.3908 27.2495 29.7402 27.1363C31.1602 26.6374 31.553 26.1163 31.6663 25.9277C31.6663 25.4242 31.6621 24.1601 31.553 23.3976L31.5428 23.3241C31.3796 22.154 31.1355 21.2366 27.4662 20.7553C27.4499 20.7542 27.4336 20.7531 27.4172 20.7522C27.083 20.8342 25.833 21.6675 24.1117 21.1503M22.9163 18.7509C23.4337 19.0716 24.3975 19.1958 24.8103 19.1543C25.833 19.0514 28.0205 18.1339 28.0205 15.1138C28.0205 12.0774 26.4714 11.4688 24.8102 11.4688C24.3741 11.4688 23.871 11.5107 23.4763 11.6276"
        stroke="white" />
    <path fill-rule="evenodd" clip-rule="evenodd"
        d="M15.9836 14.6147C15.9836 18.4382 18.6134 19.8742 20.0478 19.7299C21.4823 19.8742 24.112 18.4382 24.112 14.6147C24.112 10.7705 22.1509 10 20.0478 10C17.9448 10 15.9836 10.7705 15.9836 14.6147ZM16.9773 20.9979C16.9907 20.9969 17.0041 20.996 17.0176 20.9952C17.5 21.25 18.2691 21.8583 20.0478 21.8583C21.8266 21.8583 22.5 21.25 23.0791 20.9938L23.1157 20.9961L23.1423 20.9979C27.7876 21.6071 27.2634 22.9903 27.4699 24.4717L27.4829 24.5646C27.621 25.53 27.6264 27.1303 27.6264 27.7678C27.4829 28.0066 26.9855 28.6662 25.1878 29.2979C23.4826 29.8506 21.6442 29.915 20.1434 29.9193L20.0598 29.9194L19.9761 29.9195C18.4753 29.9153 16.6369 29.8506 14.9317 29.2979C13.134 28.6662 12.6366 28.0066 12.4932 27.7678C12.4932 27.1303 12.4985 25.53 12.6366 24.5646L12.6496 24.4717C12.8562 22.9903 12.3319 21.6071 16.9773 20.9979Z"
        stroke="#17B09E" />
</svg>