<svg width="32" height="32" viewBox="0 0 32 32" fill="none" xmlns="http://www.w3.org/2000/svg">
<rect x="0.5" y="0.5" width="31" height="31" rx="7.5" stroke="white" stroke-opacity="0.6"/>
<mask id="path-2-inside-1_36232_36944" fill="white">
<path fill-rule="evenodd" clip-rule="evenodd" d="M23.4694 15.3182C22.5851 16.3896 21.2469 17.0725 19.7492 17.0725C17.0864 17.0725 14.9277 14.9139 14.9277 12.2511C14.9277 10.7533 15.6108 9.41494 16.6823 8.53062C16.4576 8.51035 16.23 8.5 16 8.5C11.8579 8.5 8.5 11.8579 8.5 16C8.5 20.1421 11.8579 23.5 16 23.5C20.1421 23.5 23.5 20.1421 23.5 16C23.5 15.7702 23.4897 15.5428 23.4694 15.3182Z"/>
</mask>
<path d="M23.4694 15.3182L24.4654 15.2285L24.247 12.8051L22.6982 14.6817L23.4694 15.3182ZM16.6823 8.53062L17.3188 9.3019L19.1955 7.75321L16.7722 7.53466L16.6823 8.53062ZM22.6982 14.6817C21.9957 15.5328 20.9359 16.0725 19.7492 16.0725V18.0725C21.5579 18.0725 23.1745 17.2465 24.2407 15.9548L22.6982 14.6817ZM19.7492 16.0725C17.6386 16.0725 15.9277 14.3616 15.9277 12.2511H13.9277C13.9277 15.4662 16.5341 18.0725 19.7492 18.0725V16.0725ZM15.9277 12.2511C15.9277 11.0643 16.4676 10.0044 17.3188 9.3019L16.0458 7.75934C14.7539 8.82548 13.9277 10.4422 13.9277 12.2511H15.9277ZM16 9.5C16.2 9.5 16.3976 9.509 16.5925 9.52658L16.7722 7.53466C16.5176 7.51171 16.26 7.5 16 7.5V9.5ZM9.5 16C9.5 12.4101 12.4101 9.5 16 9.5V7.5C11.3056 7.5 7.5 11.3056 7.5 16H9.5ZM16 22.5C12.4101 22.5 9.5 19.5899 9.5 16H7.5C7.5 20.6944 11.3056 24.5 16 24.5V22.5ZM22.5 16C22.5 19.5899 19.5899 22.5 16 22.5V24.5C20.6944 24.5 24.5 20.6944 24.5 16H22.5ZM22.4735 15.408C22.491 15.6027 22.5 15.8002 22.5 16H24.5C24.5 15.7402 24.4883 15.4828 24.4654 15.2285L22.4735 15.408Z" fill="white" mask="url(#path-2-inside-1_36232_36944)"/>
</svg>
