<svg width="32" height="32" viewBox="0 0 32 32" fill="none" xmlns="http://www.w3.org/2000/svg">
<rect x="0.5" y="0.5" width="31" height="31" rx="7.5" stroke="white" stroke-opacity="0.6"/>
<path fill-rule="evenodd" clip-rule="evenodd" d="M15.5 7.5C15.5 7.22386 15.7239 7 16 7C16.2761 7 16.5 7.22386 16.5 7.5V8.5C16.5 8.77614 16.2761 9 16 9C15.7239 9 15.5 8.77614 15.5 8.5V7.5ZM16 21C18.7614 21 21 18.7614 21 16C21 13.2386 18.7614 11 16 11C13.2386 11 11 13.2386 11 16C11 18.7614 13.2386 21 16 21ZM16 22C19.3137 22 22 19.3137 22 16C22 12.6863 19.3137 10 16 10C12.6863 10 10 12.6863 10 16C10 19.3137 12.6863 22 16 22ZM16 23C15.7239 23 15.5 23.2239 15.5 23.5V24.5C15.5 24.7761 15.7239 25 16 25C16.2761 25 16.5 24.7761 16.5 24.5V23.5C16.5 23.2239 16.2761 23 16 23ZM22.0605 9.53355C22.2558 9.33829 22.5724 9.33829 22.7676 9.53355C22.9629 9.72882 22.9629 10.0454 22.7676 10.2407L22.0605 10.9478C21.8652 11.143 21.5487 11.143 21.3534 10.9478C21.1581 10.7525 21.1581 10.4359 21.3534 10.2407L22.0605 9.53355ZM22.7676 22.3664C22.5724 22.5617 22.2558 22.5617 22.0605 22.3664L21.3534 21.6593C21.1581 21.4641 21.1581 21.1475 21.3534 20.9522C21.5487 20.757 21.8652 20.757 22.0605 20.9522L22.7676 21.6593C22.9629 21.8546 22.9629 22.1712 22.7676 22.3664ZM9.91215 22.3664C9.71689 22.5617 9.4003 22.5617 9.20504 22.3664C9.00978 22.1712 9.00978 21.8546 9.20504 21.6593L9.91215 20.9522C10.1074 20.757 10.424 20.757 10.6193 20.9522C10.8145 21.1475 10.8145 21.4641 10.6193 21.6593L9.91215 22.3664ZM10.6426 10.9464C10.4474 11.1417 10.1308 11.1417 9.93551 10.9464L9.2284 10.2393C9.03314 10.0441 9.03314 9.7275 9.2284 9.53223C9.42366 9.33697 9.74025 9.33697 9.93551 9.53223L10.6426 10.2393C10.8379 10.4346 10.8379 10.7512 10.6426 10.9464ZM24.5 15.5C24.7761 15.5 25 15.7239 25 16C25 16.2761 24.7761 16.5 24.5 16.5H23.5C23.2239 16.5 23 16.2761 23 16C23 15.7239 23.2239 15.5 23.5 15.5H24.5ZM9 16C9 15.7239 8.77614 15.5 8.5 15.5H7.5C7.22386 15.5 7 15.7239 7 16C7 16.2761 7.22386 16.5 7.5 16.5H8.5C8.77614 16.5 9 16.2761 9 16Z" fill="white"/>
</svg>
