<svg width="20" height="19" viewBox="0 0 20 19" fill="none" xmlns="http://www.w3.org/2000/svg">
<path d="M9.30751 1.61791C9.56371 1.00195 10.4363 1.00194 10.6925 1.61792L12.1297 5.07339C12.4537 5.85242 13.1863 6.3847 14.0274 6.45213L17.7578 6.7512C18.4228 6.80451 18.6925 7.63439 18.1858 8.06839L15.3436 10.5031C14.7028 11.052 14.423 11.9132 14.6188 12.7339L15.4871 16.3742C15.6419 17.0231 14.936 17.536 14.3666 17.1883L11.1728 15.2375C10.4528 14.7977 9.54721 14.7977 8.82718 15.2375L5.63337 17.1883C5.06405 17.536 4.35811 17.0231 4.5129 16.3742L5.38125 12.7339C5.57701 11.9132 5.29717 11.052 4.6564 10.5031L1.81417 8.06839C1.30752 7.63439 1.57716 6.80451 2.24216 6.7512L5.97263 6.45213C6.81366 6.3847 7.54628 5.85242 7.8703 5.07339L9.30751 1.61791Z" stroke="#121212" stroke-width="1.5" stroke-linejoin="round"/>
</svg>
