<svg width="84" height="84" viewBox="0 0 84 84" fill="none" xmlns="http://www.w3.org/2000/svg">
<rect width="84" height="84" rx="8" fill="white" fill-opacity="0.12"/>
<path fill-rule="evenodd" clip-rule="evenodd" d="M34.9961 51.6055C33.4773 51.6055 32.2461 50.3743 32.2461 48.8555L32.2461 44.8555C32.2461 44.4413 32.5819 44.1055 32.9961 44.1055C33.4103 44.1055 33.7461 44.4413 33.7461 44.8555L33.7461 48.8555C33.7461 49.5458 34.3057 50.1055 34.9961 50.1055L48.9961 50.1055C49.6865 50.1055 50.2461 49.5458 50.2461 48.8555L50.2461 44.8555C50.2461 44.4413 50.5819 44.1055 50.9961 44.1055C51.4103 44.1055 51.7461 44.4413 51.7461 44.8555L51.7461 48.8555C51.7461 50.3743 50.5149 51.6055 48.9961 51.6055L34.9961 51.6055ZM37.1689 38.378C36.876 38.0851 36.876 37.6102 37.1689 37.3173L41.4115 33.0747C41.7044 32.7818 42.1793 32.7818 42.4722 33.0747L46.7148 37.3173C47.0077 37.6102 47.0077 38.0851 46.7148 38.378C46.4219 38.6709 45.9471 38.6709 45.6542 38.378L42.7505 35.4743L42.7505 45.7974C42.7505 46.2116 42.4147 46.5474 42.0005 46.5474C41.5863 46.5474 41.2505 46.2116 41.2505 45.7974L41.2505 35.357L38.2295 38.378C37.9367 38.6709 37.4618 38.6709 37.1689 38.378Z" fill="white" fill-opacity="0.4"/>
</svg>
