<svg width="12" height="12" viewBox="0 0 12 12" fill="none" xmlns="http://www.w3.org/2000/svg">
<path fill-rule="evenodd" clip-rule="evenodd" d="M7.65951 2.66667C7.65951 3.58714 6.91331 4.33333 5.99284 4.33333C5.07236 4.33333 4.32617 3.58714 4.32617 2.66667C4.32617 1.74619 5.07236 1 5.99284 1C6.91331 1 7.65951 1.74619 7.65951 2.66667ZM8.65951 2.66667C8.65951 4.13943 7.4656 5.33333 5.99284 5.33333C4.52008 5.33333 3.32617 4.13943 3.32617 2.66667C3.32617 1.19391 4.52008 0 5.99284 0C7.4656 0 8.65951 1.19391 8.65951 2.66667ZM10.3268 9C10.3268 9.3067 10.0953 9.78804 9.27446 10.2497C8.485 10.6938 7.32703 11 5.99349 11C4.65995 11 3.50198 10.6938 2.71251 10.2497C1.89171 9.78804 1.66016 9.3067 1.66016 9C1.66016 8.6933 1.89171 8.21196 2.71251 7.75026C3.50198 7.30618 4.65995 7 5.99349 7C7.32703 7 8.485 7.30618 9.27446 7.75026C10.0953 8.21196 10.3268 8.6933 10.3268 9ZM11.3268 9C11.3268 10.6569 8.93901 12 5.99349 12C3.04797 12 0.660156 10.6569 0.660156 9C0.660156 7.34315 3.04797 6 5.99349 6C8.93901 6 11.3268 7.34315 11.3268 9Z" fill="white" />
</svg>
