<svg width="16" height="16" viewBox="0 0 16 16" fill="none" xmlns="http://www.w3.org/2000/svg">
<path fill-rule="evenodd" clip-rule="evenodd" d="M10.5 4C10.5 5.38071 9.38071 6.5 8 6.5C6.61929 6.5 5.5 5.38071 5.5 4C5.5 2.61929 6.61929 1.5 8 1.5C9.38071 1.5 10.5 2.61929 10.5 4ZM12 4C12 6.20914 10.2091 8 8 8C5.79086 8 4 6.20914 4 4C4 1.79086 5.79086 0 8 0C10.2091 0 12 1.79086 12 4ZM4.88889 10.1641H11.1111C12.9827 10.1641 14.5 11.6813 14.5 13.553C14.5 14.0746 14.0772 14.4974 13.5556 14.4974H2.44444C1.92284 14.4974 1.5 14.0746 1.5 13.553C1.5 11.6813 3.01726 10.1641 4.88889 10.1641ZM0 13.553C0 10.8529 2.18883 8.66406 4.88889 8.66406H11.1111C13.8112 8.66406 16 10.8529 16 13.553C16 14.903 14.9056 15.9974 13.5556 15.9974H2.44444C1.09441 15.9974 0 14.903 0 13.553Z" fill="white"/>
</svg>
