<svg width="32" height="32" viewBox="0 0 32 32" fill="none" xmlns="http://www.w3.org/2000/svg">
<rect width="32" height="32" rx="6" fill="#17B09E"/>
<rect x="0.5" y="0.5" width="31" height="31" rx="5.5" stroke="white" stroke-opacity="0.12"/>
<path fill-rule="evenodd" clip-rule="evenodd" d="M9.52177 7.09766C8.08481 7.09766 6.91992 8.26254 6.91992 9.69951C6.91992 9.78641 6.92418 9.87232 6.93251 9.95703H6.91992V21.1422C6.91992 23.2133 8.59885 24.8922 10.6699 24.8922H21.3366C23.4077 24.8922 25.0866 23.2133 25.0866 21.1422V14.5496C25.0866 12.5562 23.5312 10.9261 21.5679 10.8066C21.5459 8.75447 19.8755 7.09766 17.8181 7.09766H9.52177ZM20.0676 10.7996H16.0033H11.8366V10.8014H9.52177C8.91324 10.8014 8.41992 10.308 8.41992 9.69951C8.41992 9.09097 8.91324 8.59766 9.52177 8.59766H17.8181C19.0447 8.59766 20.042 9.57916 20.0676 10.7996ZM21.4258 12.3014C22.6271 12.3482 23.5866 13.3369 23.5866 14.5496V21.1422C23.5866 22.3849 22.5792 23.3922 21.3366 23.3922H10.6699C9.42728 23.3922 8.41992 22.3849 8.41992 21.1422V18.5961H17.6151C17.9229 19.4541 18.7435 20.0679 19.7075 20.0679C20.9348 20.0679 21.9297 19.073 21.9297 17.8457C21.9297 16.6184 20.9348 15.6234 19.7075 15.6234C18.7432 15.6234 17.9224 16.2376 17.6148 17.0961H8.41992V12.0572C8.75451 12.2139 9.12792 12.3014 9.52177 12.3014H20.8181H21.4258ZM19.7075 18.5679C19.3086 18.5679 18.9852 18.2445 18.9852 17.8457C18.9852 17.4468 19.3086 17.1234 19.7075 17.1234C20.1063 17.1234 20.4297 17.4468 20.4297 17.8457C20.4297 18.2445 20.1063 18.5679 19.7075 18.5679Z" fill="white"/>
</svg>
