<svg width="20" height="19" viewBox="0 0 20 19" fill="none" xmlns="http://www.w3.org/2000/svg">
<path d="M8.61502 1.32989C9.12741 0.0979526 10.8726 0.097955 11.385 1.32989L12.8222 4.78537C13.0382 5.30472 13.5266 5.65957 14.0873 5.70452L17.8178 6.00359C19.1478 6.11022 19.687 7.76998 18.6737 8.63798L15.8315 11.0727C15.4043 11.4386 15.2178 12.0127 15.3483 12.5599L16.2166 16.2002C16.5262 17.498 15.1143 18.5238 13.9757 17.8283L10.7819 15.8776C10.3019 15.5844 9.69814 15.5844 9.21812 15.8776L6.02431 17.8283C4.88566 18.5238 3.47378 17.498 3.78337 16.2002L4.65171 12.5599C4.78223 12.0127 4.59567 11.4386 4.16848 11.0727L1.32625 8.63798C0.312949 7.76998 0.852241 6.11022 2.18222 6.00359L5.9127 5.70452C6.47338 5.65957 6.9618 5.30472 7.17781 4.78537L8.61502 1.32989Z" fill="#17B09E"/>
</svg>
